<svg xmlns="http://www.w3.org/2000/svg" viewBox="0 0 410 150" role="img" font-family="ui-monospace, 'Cascadia Mono', Consolas, monospace"><title>defenestrate, Throw bloat out the Window. Deep clean, smart…</title><desc>Chalkboard project card for defenestrate: live description, language and push age, regenerated from GitHub data.</desc><style>@media (prefers-color-scheme: light){.bg{fill:#ffffff}.panel{fill:#ffffff}.s{stroke:#2d3142}.tchalk{fill:#2d3142}.tdim{fill:#9aa2b1}.ay{stroke:#b45309}.ac{stroke:#0369a1}.acf{fill:#0369a1}.apr{stroke:#b91c1c}.aprf{fill:#b91c1c}}.st-r{stroke:#e26d5c}.tx-r{fill:#e26d5c}@media (prefers-color-scheme: light){.st-r{stroke:#b91c1c}.tx-r{fill:#b91c1c}}</style><defs><filter id="wob" x="-5%" y="-5%" width="110%" height="110%"><feTurbulence type="fractalNoise" baseFrequency="0.035" numOctaves="2" seed="11" result="n"/><feDisplacementMap in="SourceGraphic" in2="n" scale="3"/></filter></defs><rect class="bg" x="0" y="0" width="410" height="150" rx="6" fill="#0d1117"/><g id="rules"><line x1="24" y1="42" x2="386" y2="42" stroke="#ffffff" stroke-opacity="0.06" stroke-width="1"/><line x1="24" y1="69" x2="386" y2="69" stroke="#ffffff" stroke-opacity="0.06" stroke-width="1"/><line x1="24" y1="96" x2="386" y2="96" stroke="#ffffff" stroke-opacity="0.06" stroke-width="1"/><line x1="24" y1="123" x2="386" y2="123" stroke="#ffffff" stroke-opacity="0.06" stroke-width="1"/></g><rect class="panel s" x="3" y="3" width="404" height="144" fill="#171a21" stroke="#f4f1e8" stroke-width="2.5" filter="url(#wob)" transform="rotate(-0.6 205 75)"/><g transform="translate(24,24)"><g filter="url(#wob)" fill="none" stroke="#7dd3fc" stroke-width="2.6" stroke-linecap="round" stroke-linejoin="round" class="ac"><path d="M34,2 L18,28"/><path d="M18,28 L8,42 M18,28 L15,43 M18,28 L23,43 M18,28 L29,40"/><path d="M11,34 L27,32"/></g></g><text class="tchalk" x="86" y="50" font-size="17" font-weight="bold" fill="#f4f1e8">defenestrate</text><circle cx="208" cy="44" r="4" fill="#00ADD8" class="acf"/><text class="tdim" x="218" y="49" font-size="12" fill="#d9dde3">Go</text><text class="tdim" x="86" y="76" font-size="13" fill="#d9dde3">Throw bloat out the Window. Deep</text><text class="tdim" x="86" y="94" font-size="13" fill="#d9dde3">clean, smart uninstaller, disk…</text><text class="tdim" x="384" y="68" font-size="10" text-anchor="end" fill="#d9dde3">pushed 24d ago</text><g filter="url(#wob)" fill="none" stroke="#fbbf24" stroke-width="2.2" stroke-linecap="round" class="ay"><path d="M336,120 C356,116 372,120 388,116 M382,110 L389,116 L382,122"/></g><g filter="url(#wob)" fill="none" stroke="#e26d5c" stroke-width="1.6" stroke-linecap="round" class="apr"><rect x="304" y="10" width="88" height="22" rx="4"/></g><text x="348" y="25" font-size="11" text-anchor="middle" fill="#e26d5c" class="aprf">16·09·26</text><text x="384" y="50" font-size="11" text-anchor="end" fill="#e26d5c" class="aprf">no. 2</text></svg>