<svg width="800" height="200" viewBox="0 0 800 200" xmlns="http://www.w3.org/2000/svg">
  <defs>
    <style>
      @import url('https://fonts.googleapis.com/css2?family=Outfit:wght@900&amp;display=swap');
      
      :root {
        --bg-color: #0b132b;
        --fg-color: #ffffff;
        --ac-color: #ef233c;
      }
      
      @media (prefers-color-scheme: light) {
        :root {
          --bg-color: #f8fafc;
          --fg-color: #0f172a;
          --ac-color: #ef233c;
        }
      }
      
      .cricket-bg { fill: var(--bg-color); }
      .cricket-title { font-family: 'Outfit', sans-serif; font-size: 14px; fill: var(--fg-color); opacity: 0.6; font-weight: bold; letter-spacing: 2px; }
      
      /* 3-Color Logic: Variations of Contrast (White) on Base (Navy) */
      .cricket-level-1 { fill: var(--fg-color); opacity: 0.05; }
      .cricket-level-2 { fill: var(--fg-color); opacity: 0.3; }
      .cricket-level-3 { fill: var(--fg-color); opacity: 0.6; }
      .cricket-level-4 { fill: var(--fg-color); opacity: 1.0; }
      
      .cricket-ball { fill: var(--ac-color); filter: drop-shadow(0 0 4px var(--ac-color)); }
      .cricket-popup { font-family: 'Outfit', sans-serif; font-size: 24px; font-weight: 900; text-anchor: middle; }
      
      .cricket-popup-contrast { fill: var(--fg-color); filter: drop-shadow(0 0 8px rgba(255,255,255,0.2)); }
      .cricket-popup-accent { fill: var(--ac-color); filter: drop-shadow(0 0 8px var(--ac-color)); }
      
      /* The Batsman Silhouette */
      .cricket-batsman { fill: var(--fg-color); opacity: 0.5; }
      .cricket-bat { fill: var(--ac-color); }
      
      
        @keyframes cricket-hit0 {
            0%, 0.0% { offset-distance: 0%; opacity: 0; }
            0.625% { opacity: 1; }
            9.375% { offset-distance: 100%; opacity: 1; }
            10.0%, 100% { offset-distance: 100%; opacity: 0; }
        }
        
        @keyframes cricket-pop0 {
            0%, 8.75% { transform: translate(0,0) scale(0.5); opacity: 0; }
            9.375% { transform: translate(0,-10px) scale(1.5); opacity: 1; }
            15.625% { transform: translate(0,-30px) scale(1); opacity: 1; }
            18.75%, 100% { transform: translate(0,-40px) scale(1); opacity: 0; }
        }
        
        @keyframes cricket-hit1 {
            0%, 15.625% { offset-distance: 0%; opacity: 0; }
            16.25% { opacity: 1; }
            25.0% { offset-distance: 100%; opacity: 1; }
            25.624999999999996%, 100% { offset-distance: 100%; opacity: 0; }
        }
        
        @keyframes cricket-pop1 {
            0%, 24.375% { transform: translate(0,0) scale(0.5); opacity: 0; }
            25.0% { transform: translate(0,-10px) scale(1.5); opacity: 1; }
            31.25% { transform: translate(0,-30px) scale(1); opacity: 1; }
            34.375%, 100% { transform: translate(0,-40px) scale(1); opacity: 0; }
        }
        
        @keyframes cricket-hit2 {
            0%, 31.25% { offset-distance: 0%; opacity: 0; }
            31.874999999999996% { opacity: 1; }
            40.625% { offset-distance: 100%; opacity: 1; }
            41.25%, 100% { offset-distance: 100%; opacity: 0; }
        }
        
        @keyframes cricket-pop2 {
            0%, 40.0% { transform: translate(0,0) scale(0.5); opacity: 0; }
            40.625% { transform: translate(0,-10px) scale(1.5); opacity: 1; }
            46.875% { transform: translate(0,-30px) scale(1); opacity: 1; }
            50.0%, 100% { transform: translate(0,-40px) scale(1); opacity: 0; }
        }
        
        @keyframes cricket-hit3 {
            0%, 46.875% { offset-distance: 0%; opacity: 0; }
            47.5% { opacity: 1; }
            56.25% { offset-distance: 100%; opacity: 1; }
            56.875%, 100% { offset-distance: 100%; opacity: 0; }
        }
        
        @keyframes cricket-pop3 {
            0%, 55.625% { transform: translate(0,0) scale(0.5); opacity: 0; }
            56.25% { transform: translate(0,-10px) scale(1.5); opacity: 1; }
            62.5% { transform: translate(0,-30px) scale(1); opacity: 1; }
            65.625%, 100% { transform: translate(0,-40px) scale(1); opacity: 0; }
        }
        
        @keyframes cricket-hit4 {
            0%, 62.5% { offset-distance: 0%; opacity: 0; }
            63.125% { opacity: 1; }
            71.875% { offset-distance: 100%; opacity: 1; }
            72.5%, 100% { offset-distance: 100%; opacity: 0; }
        }
        
        @keyframes cricket-pop4 {
            0%, 71.25% { transform: translate(0,0) scale(0.5); opacity: 0; }
            71.875% { transform: translate(0,-10px) scale(1.5); opacity: 1; }
            78.125% { transform: translate(0,-30px) scale(1); opacity: 1; }
            81.25%, 100% { transform: translate(0,-40px) scale(1); opacity: 0; }
        }
        
        @keyframes cricket-hit5 {
            0%, 78.125% { offset-distance: 0%; opacity: 0; }
            78.75% { opacity: 1; }
            87.5% { offset-distance: 100%; opacity: 1; }
            88.125%, 100% { offset-distance: 100%; opacity: 0; }
        }
        
        @keyframes cricket-pop5 {
            0%, 86.875% { transform: translate(0,0) scale(0.5); opacity: 0; }
            87.5% { transform: translate(0,-10px) scale(1.5); opacity: 1; }
            93.75% { transform: translate(0,-30px) scale(1); opacity: 1; }
            96.875%, 100% { transform: translate(0,-40px) scale(1); opacity: 0; }
        }
        
        @keyframes cricket-hit6 {
            0%, 93.75% { offset-distance: 0%; opacity: 0; }
            94.375% { opacity: 1; }
            103.125% { offset-distance: 100%; opacity: 1; }
            103.75000000000001%, 100% { offset-distance: 100%; opacity: 0; }
        }
        
        @keyframes cricket-pop6 {
            0%, 102.49999999999999% { transform: translate(0,0) scale(0.5); opacity: 0; }
            103.125% { transform: translate(0,-10px) scale(1.5); opacity: 1; }
            109.375% { transform: translate(0,-30px) scale(1); opacity: 1; }
            112.5%, 100% { transform: translate(0,-40px) scale(1); opacity: 0; }
        }
        
        @keyframes cricket-hit7 {
            0%, 109.375% { offset-distance: 0%; opacity: 0; }
            110.00000000000001% { opacity: 1; }
            118.75% { offset-distance: 100%; opacity: 1; }
            119.37500000000001%, 100% { offset-distance: 100%; opacity: 0; }
        }
        
        @keyframes cricket-pop7 {
            0%, 118.12499999999999% { transform: translate(0,0) scale(0.5); opacity: 0; }
            118.75% { transform: translate(0,-10px) scale(1.5); opacity: 1; }
            125.0% { transform: translate(0,-30px) scale(1); opacity: 1; }
            128.125%, 100% { transform: translate(0,-40px) scale(1); opacity: 0; }
        }
        
    </style>
  </defs>

  <!-- Background -->
  <rect class="cricket-bg" width="800" height="200" />
  <text x="20" y="30" class="cricket-title">CRICKET CONTRIBUTION GRAPH // LAST 365 DAYS</text>

  <!-- Grid -->
  <rect x="10.0" y="57.5" width="12" height="12" rx="2" class="cricket-level-2" />
<rect x="10.0" y="72.5" width="12" height="12" rx="2" class="cricket-level-1" />
<rect x="10.0" y="87.5" width="12" height="12" rx="2" class="cricket-level-1" />
<rect x="10.0" y="102.5" width="12" height="12" rx="2" class="cricket-level-2" />
<rect x="10.0" y="117.5" width="12" height="12" rx="2" class="cricket-level-3" />
<rect x="10.0" y="132.5" width="12" height="12" rx="2" class="cricket-level-1" />
<rect x="10.0" y="147.5" width="12" height="12" rx="2" class="cricket-level-2" />
<rect x="25.0" y="57.5" width="12" height="12" rx="2" class="cricket-level-1" />
<rect x="25.0" y="72.5" width="12" height="12" rx="2" class="cricket-level-1" />
<rect x="25.0" y="87.5" width="12" height="12" rx="2" class="cricket-level-1" />
<rect x="25.0" y="102.5" width="12" height="12" rx="2" class="cricket-level-1" />
<rect x="25.0" y="117.5" width="12" height="12" rx="2" class="cricket-level-2" />
<rect x="25.0" y="132.5" width="12" height="12" rx="2" class="cricket-level-2" />
<rect x="25.0" y="147.5" width="12" height="12" rx="2" class="cricket-level-3" />
<rect x="40.0" y="57.5" width="12" height="12" rx="2" class="cricket-level-2" />
<rect x="40.0" y="72.5" width="12" height="12" rx="2" class="cricket-level-3" />
<rect x="40.0" y="87.5" width="12" height="12" rx="2" class="cricket-level-1" />
<rect x="40.0" y="102.5" width="12" height="12" rx="2" class="cricket-level-2" />
<rect x="40.0" y="117.5" width="12" height="12" rx="2" class="cricket-level-2" />
<rect x="40.0" y="132.5" width="12" height="12" rx="2" class="cricket-level-1" />
<rect x="40.0" y="147.5" width="12" height="12" rx="2" class="cricket-level-4" />
<rect x="55.0" y="57.5" width="12" height="12" rx="2" class="cricket-level-4" />
<rect x="55.0" y="72.5" width="12" height="12" rx="2" class="cricket-level-3" />
<rect x="55.0" y="87.5" width="12" height="12" rx="2" class="cricket-level-1" />
<rect x="55.0" y="102.5" width="12" height="12" rx="2" class="cricket-level-1" />
<rect x="55.0" y="117.5" width="12" height="12" rx="2" class="cricket-level-2" />
<rect x="55.0" y="132.5" width="12" height="12" rx="2" class="cricket-level-4" />
<rect x="55.0" y="147.5" width="12" height="12" rx="2" class="cricket-level-2" />
<rect x="70.0" y="57.5" width="12" height="12" rx="2" class="cricket-level-2" />
<rect x="70.0" y="72.5" width="12" height="12" rx="2" class="cricket-level-1" />
<rect x="70.0" y="87.5" width="12" height="12" rx="2" class="cricket-level-1" />
<rect x="70.0" y="102.5" width="12" height="12" rx="2" class="cricket-level-1" />
<rect x="70.0" y="117.5" width="12" height="12" rx="2" class="cricket-level-2" />
<rect x="70.0" y="132.5" width="12" height="12" rx="2" class="cricket-level-1" />
<rect x="70.0" y="147.5" width="12" height="12" rx="2" class="cricket-level-1" />
<rect x="85.0" y="57.5" width="12" height="12" rx="2" class="cricket-level-2" />
<rect x="85.0" y="72.5" width="12" height="12" rx="2" class="cricket-level-1" />
<rect x="85.0" y="87.5" width="12" height="12" rx="2" class="cricket-level-1" />
<rect x="85.0" y="102.5" width="12" height="12" rx="2" class="cricket-level-2" />
<rect x="85.0" y="117.5" width="12" height="12" rx="2" class="cricket-level-1" />
<rect x="85.0" y="132.5" width="12" height="12" rx="2" class="cricket-level-2" />
<rect x="85.0" y="147.5" width="12" height="12" rx="2" class="cricket-level-1" />
<rect x="100.0" y="57.5" width="12" height="12" rx="2" class="cricket-level-3" />
<rect x="100.0" y="72.5" width="12" height="12" rx="2" class="cricket-level-2" />
<rect x="100.0" y="87.5" width="12" height="12" rx="2" class="cricket-level-1" />
<rect x="100.0" y="102.5" width="12" height="12" rx="2" class="cricket-level-1" />
<rect x="100.0" y="117.5" width="12" height="12" rx="2" class="cricket-level-1" />
<rect x="100.0" y="132.5" width="12" height="12" rx="2" class="cricket-level-1" />
<rect x="100.0" y="147.5" width="12" height="12" rx="2" class="cricket-level-2" />
<rect x="115.0" y="57.5" width="12" height="12" rx="2" class="cricket-level-1" />
<rect x="115.0" y="72.5" width="12" height="12" rx="2" class="cricket-level-1" />
<rect x="115.0" y="87.5" width="12" height="12" rx="2" class="cricket-level-1" />
<rect x="115.0" y="102.5" width="12" height="12" rx="2" class="cricket-level-1" />
<rect x="115.0" y="117.5" width="12" height="12" rx="2" class="cricket-level-1" />
<rect x="115.0" y="132.5" width="12" height="12" rx="2" class="cricket-level-1" />
<rect x="115.0" y="147.5" width="12" height="12" rx="2" class="cricket-level-1" />
<rect x="130.0" y="57.5" width="12" height="12" rx="2" class="cricket-level-1" />
<rect x="130.0" y="72.5" width="12" height="12" rx="2" class="cricket-level-1" />
<rect x="130.0" y="87.5" width="12" height="12" rx="2" class="cricket-level-2" />
<rect x="130.0" y="102.5" width="12" height="12" rx="2" class="cricket-level-1" />
<rect x="130.0" y="117.5" width="12" height="12" rx="2" class="cricket-level-2" />
<rect x="130.0" y="132.5" width="12" height="12" rx="2" class="cricket-level-1" />
<rect x="130.0" y="147.5" width="12" height="12" rx="2" class="cricket-level-1" />
<rect x="145.0" y="57.5" width="12" height="12" rx="2" class="cricket-level-2" />
<rect x="145.0" y="72.5" width="12" height="12" rx="2" class="cricket-level-1" />
<rect x="145.0" y="87.5" width="12" height="12" rx="2" class="cricket-level-1" />
<rect x="145.0" y="102.5" width="12" height="12" rx="2" class="cricket-level-1" />
<rect x="145.0" y="117.5" width="12" height="12" rx="2" class="cricket-level-2" />
<rect x="145.0" y="132.5" width="12" height="12" rx="2" class="cricket-level-1" />
<rect x="145.0" y="147.5" width="12" height="12" rx="2" class="cricket-level-1" />
<rect x="160.0" y="57.5" width="12" height="12" rx="2" class="cricket-level-1" />
<rect x="160.0" y="72.5" width="12" height="12" rx="2" class="cricket-level-1" />
<rect x="160.0" y="87.5" width="12" height="12" rx="2" class="cricket-level-1" />
<rect x="160.0" y="102.5" width="12" height="12" rx="2" class="cricket-level-1" />
<rect x="160.0" y="117.5" width="12" height="12" rx="2" class="cricket-level-1" />
<rect x="160.0" y="132.5" width="12" height="12" rx="2" class="cricket-level-1" />
<rect x="160.0" y="147.5" width="12" height="12" rx="2" class="cricket-level-1" />
<rect x="175.0" y="57.5" width="12" height="12" rx="2" class="cricket-level-1" />
<rect x="175.0" y="72.5" width="12" height="12" rx="2" class="cricket-level-3" />
<rect x="175.0" y="87.5" width="12" height="12" rx="2" class="cricket-level-1" />
<rect x="175.0" y="102.5" width="12" height="12" rx="2" class="cricket-level-2" />
<rect x="175.0" y="117.5" width="12" height="12" rx="2" class="cricket-level-2" />
<rect x="175.0" y="132.5" width="12" height="12" rx="2" class="cricket-level-2" />
<rect x="175.0" y="147.5" width="12" height="12" rx="2" class="cricket-level-1" />
<rect x="190.0" y="57.5" width="12" height="12" rx="2" class="cricket-level-1" />
<rect x="190.0" y="72.5" width="12" height="12" rx="2" class="cricket-level-4" />
<rect x="190.0" y="87.5" width="12" height="12" rx="2" class="cricket-level-1" />
<rect x="190.0" y="102.5" width="12" height="12" rx="2" class="cricket-level-1" />
<rect x="190.0" y="117.5" width="12" height="12" rx="2" class="cricket-level-4" />
<rect x="190.0" y="132.5" width="12" height="12" rx="2" class="cricket-level-1" />
<rect x="190.0" y="147.5" width="12" height="12" rx="2" class="cricket-level-2" />
<rect x="205.0" y="57.5" width="12" height="12" rx="2" class="cricket-level-1" />
<rect x="205.0" y="72.5" width="12" height="12" rx="2" class="cricket-level-1" />
<rect x="205.0" y="87.5" width="12" height="12" rx="2" class="cricket-level-2" />
<rect x="205.0" y="102.5" width="12" height="12" rx="2" class="cricket-level-1" />
<rect x="205.0" y="117.5" width="12" height="12" rx="2" class="cricket-level-2" />
<rect x="205.0" y="132.5" width="12" height="12" rx="2" class="cricket-level-2" />
<rect x="205.0" y="147.5" width="12" height="12" rx="2" class="cricket-level-3" />
<rect x="220.0" y="57.5" width="12" height="12" rx="2" class="cricket-level-1" />
<rect x="220.0" y="72.5" width="12" height="12" rx="2" class="cricket-level-1" />
<rect x="220.0" y="87.5" width="12" height="12" rx="2" class="cricket-level-1" />
<rect x="220.0" y="102.5" width="12" height="12" rx="2" class="cricket-level-1" />
<rect x="220.0" y="117.5" width="12" height="12" rx="2" class="cricket-level-1" />
<rect x="220.0" y="132.5" width="12" height="12" rx="2" class="cricket-level-1" />
<rect x="220.0" y="147.5" width="12" height="12" rx="2" class="cricket-level-1" />
<rect x="235.0" y="57.5" width="12" height="12" rx="2" class="cricket-level-2" />
<rect x="235.0" y="72.5" width="12" height="12" rx="2" class="cricket-level-2" />
<rect x="235.0" y="87.5" width="12" height="12" rx="2" class="cricket-level-2" />
<rect x="235.0" y="102.5" width="12" height="12" rx="2" class="cricket-level-1" />
<rect x="235.0" y="117.5" width="12" height="12" rx="2" class="cricket-level-1" />
<rect x="235.0" y="132.5" width="12" height="12" rx="2" class="cricket-level-2" />
<rect x="235.0" y="147.5" width="12" height="12" rx="2" class="cricket-level-3" />
<rect x="250.0" y="57.5" width="12" height="12" rx="2" class="cricket-level-2" />
<rect x="250.0" y="72.5" width="12" height="12" rx="2" class="cricket-level-2" />
<rect x="250.0" y="87.5" width="12" height="12" rx="2" class="cricket-level-1" />
<rect x="250.0" y="102.5" width="12" height="12" rx="2" class="cricket-level-1" />
<rect x="250.0" y="117.5" width="12" height="12" rx="2" class="cricket-level-4" />
<rect x="250.0" y="132.5" width="12" height="12" rx="2" class="cricket-level-1" />
<rect x="250.0" y="147.5" width="12" height="12" rx="2" class="cricket-level-4" />
<rect x="265.0" y="57.5" width="12" height="12" rx="2" class="cricket-level-2" />
<rect x="265.0" y="72.5" width="12" height="12" rx="2" class="cricket-level-1" />
<rect x="265.0" y="87.5" width="12" height="12" rx="2" class="cricket-level-1" />
<rect x="265.0" y="102.5" width="12" height="12" rx="2" class="cricket-level-1" />
<rect x="265.0" y="117.5" width="12" height="12" rx="2" class="cricket-level-1" />
<rect x="265.0" y="132.5" width="12" height="12" rx="2" class="cricket-level-2" />
<rect x="265.0" y="147.5" width="12" height="12" rx="2" class="cricket-level-3" />
<rect x="280.0" y="57.5" width="12" height="12" rx="2" class="cricket-level-1" />
<rect x="280.0" y="72.5" width="12" height="12" rx="2" class="cricket-level-2" />
<rect x="280.0" y="87.5" width="12" height="12" rx="2" class="cricket-level-1" />
<rect x="280.0" y="102.5" width="12" height="12" rx="2" class="cricket-level-1" />
<rect x="280.0" y="117.5" width="12" height="12" rx="2" class="cricket-level-1" />
<rect x="280.0" y="132.5" width="12" height="12" rx="2" class="cricket-level-3" />
<rect x="280.0" y="147.5" width="12" height="12" rx="2" class="cricket-level-1" />
<rect x="295.0" y="57.5" width="12" height="12" rx="2" class="cricket-level-2" />
<rect x="295.0" y="72.5" width="12" height="12" rx="2" class="cricket-level-2" />
<rect x="295.0" y="87.5" width="12" height="12" rx="2" class="cricket-level-1" />
<rect x="295.0" y="102.5" width="12" height="12" rx="2" class="cricket-level-2" />
<rect x="295.0" y="117.5" width="12" height="12" rx="2" class="cricket-level-2" />
<rect x="295.0" y="132.5" width="12" height="12" rx="2" class="cricket-level-1" />
<rect x="295.0" y="147.5" width="12" height="12" rx="2" class="cricket-level-1" />
<rect x="310.0" y="57.5" width="12" height="12" rx="2" class="cricket-level-1" />
<rect x="310.0" y="72.5" width="12" height="12" rx="2" class="cricket-level-3" />
<rect x="310.0" y="87.5" width="12" height="12" rx="2" class="cricket-level-2" />
<rect x="310.0" y="102.5" width="12" height="12" rx="2" class="cricket-level-1" />
<rect x="310.0" y="117.5" width="12" height="12" rx="2" class="cricket-level-1" />
<rect x="310.0" y="132.5" width="12" height="12" rx="2" class="cricket-level-3" />
<rect x="310.0" y="147.5" width="12" height="12" rx="2" class="cricket-level-1" />
<rect x="325.0" y="57.5" width="12" height="12" rx="2" class="cricket-level-4" />
<rect x="325.0" y="72.5" width="12" height="12" rx="2" class="cricket-level-2" />
<rect x="325.0" y="87.5" width="12" height="12" rx="2" class="cricket-level-1" />
<rect x="325.0" y="102.5" width="12" height="12" rx="2" class="cricket-level-2" />
<rect x="325.0" y="117.5" width="12" height="12" rx="2" class="cricket-level-1" />
<rect x="325.0" y="132.5" width="12" height="12" rx="2" class="cricket-level-2" />
<rect x="325.0" y="147.5" width="12" height="12" rx="2" class="cricket-level-2" />
<rect x="340.0" y="57.5" width="12" height="12" rx="2" class="cricket-level-1" />
<rect x="340.0" y="72.5" width="12" height="12" rx="2" class="cricket-level-1" />
<rect x="340.0" y="87.5" width="12" height="12" rx="2" class="cricket-level-2" />
<rect x="340.0" y="102.5" width="12" height="12" rx="2" class="cricket-level-2" />
<rect x="340.0" y="117.5" width="12" height="12" rx="2" class="cricket-level-1" />
<rect x="340.0" y="132.5" width="12" height="12" rx="2" class="cricket-level-1" />
<rect x="340.0" y="147.5" width="12" height="12" rx="2" class="cricket-level-1" />
<rect x="355.0" y="57.5" width="12" height="12" rx="2" class="cricket-level-1" />
<rect x="355.0" y="72.5" width="12" height="12" rx="2" class="cricket-level-1" />
<rect x="355.0" y="87.5" width="12" height="12" rx="2" class="cricket-level-1" />
<rect x="355.0" y="102.5" width="12" height="12" rx="2" class="cricket-level-1" />
<rect x="355.0" y="117.5" width="12" height="12" rx="2" class="cricket-level-2" />
<rect x="355.0" y="132.5" width="12" height="12" rx="2" class="cricket-level-1" />
<rect x="355.0" y="147.5" width="12" height="12" rx="2" class="cricket-level-1" />
<rect x="370.0" y="57.5" width="12" height="12" rx="2" class="cricket-level-3" />
<rect x="370.0" y="72.5" width="12" height="12" rx="2" class="cricket-level-1" />
<rect x="370.0" y="87.5" width="12" height="12" rx="2" class="cricket-level-2" />
<rect x="370.0" y="102.5" width="12" height="12" rx="2" class="cricket-level-3" />
<rect x="370.0" y="117.5" width="12" height="12" rx="2" class="cricket-level-1" />
<rect x="370.0" y="132.5" width="12" height="12" rx="2" class="cricket-level-3" />
<rect x="370.0" y="147.5" width="12" height="12" rx="2" class="cricket-level-1" />
<rect x="385.0" y="57.5" width="12" height="12" rx="2" class="cricket-level-3" />
<rect x="385.0" y="72.5" width="12" height="12" rx="2" class="cricket-level-4" />
<rect x="385.0" y="87.5" width="12" height="12" rx="2" class="cricket-level-3" />
<rect x="385.0" y="102.5" width="12" height="12" rx="2" class="cricket-level-2" />
<rect x="385.0" y="117.5" width="12" height="12" rx="2" class="cricket-level-1" />
<rect x="385.0" y="132.5" width="12" height="12" rx="2" class="cricket-level-3" />
<rect x="385.0" y="147.5" width="12" height="12" rx="2" class="cricket-level-1" />
<rect x="400.0" y="57.5" width="12" height="12" rx="2" class="cricket-level-1" />
<rect x="400.0" y="72.5" width="12" height="12" rx="2" class="cricket-level-3" />
<rect x="400.0" y="87.5" width="12" height="12" rx="2" class="cricket-level-1" />
<rect x="400.0" y="102.5" width="12" height="12" rx="2" class="cricket-level-2" />
<rect x="400.0" y="117.5" width="12" height="12" rx="2" class="cricket-level-1" />
<rect x="400.0" y="132.5" width="12" height="12" rx="2" class="cricket-level-2" />
<rect x="400.0" y="147.5" width="12" height="12" rx="2" class="cricket-level-1" />
<rect x="415.0" y="57.5" width="12" height="12" rx="2" class="cricket-level-1" />
<rect x="415.0" y="72.5" width="12" height="12" rx="2" class="cricket-level-2" />
<rect x="415.0" y="87.5" width="12" height="12" rx="2" class="cricket-level-3" />
<rect x="415.0" y="102.5" width="12" height="12" rx="2" class="cricket-level-4" />
<rect x="415.0" y="117.5" width="12" height="12" rx="2" class="cricket-level-2" />
<rect x="415.0" y="132.5" width="12" height="12" rx="2" class="cricket-level-1" />
<rect x="415.0" y="147.5" width="12" height="12" rx="2" class="cricket-level-1" />
<rect x="430.0" y="57.5" width="12" height="12" rx="2" class="cricket-level-2" />
<rect x="430.0" y="72.5" width="12" height="12" rx="2" class="cricket-level-1" />
<rect x="430.0" y="87.5" width="12" height="12" rx="2" class="cricket-level-2" />
<rect x="430.0" y="102.5" width="12" height="12" rx="2" class="cricket-level-1" />
<rect x="430.0" y="117.5" width="12" height="12" rx="2" class="cricket-level-2" />
<rect x="430.0" y="132.5" width="12" height="12" rx="2" class="cricket-level-1" />
<rect x="430.0" y="147.5" width="12" height="12" rx="2" class="cricket-level-3" />
<rect x="445.0" y="57.5" width="12" height="12" rx="2" class="cricket-level-3" />
<rect x="445.0" y="72.5" width="12" height="12" rx="2" class="cricket-level-1" />
<rect x="445.0" y="87.5" width="12" height="12" rx="2" class="cricket-level-2" />
<rect x="445.0" y="102.5" width="12" height="12" rx="2" class="cricket-level-3" />
<rect x="445.0" y="117.5" width="12" height="12" rx="2" class="cricket-level-2" />
<rect x="445.0" y="132.5" width="12" height="12" rx="2" class="cricket-level-1" />
<rect x="445.0" y="147.5" width="12" height="12" rx="2" class="cricket-level-2" />
<rect x="460.0" y="57.5" width="12" height="12" rx="2" class="cricket-level-1" />
<rect x="460.0" y="72.5" width="12" height="12" rx="2" class="cricket-level-2" />
<rect x="460.0" y="87.5" width="12" height="12" rx="2" class="cricket-level-2" />
<rect x="460.0" y="102.5" width="12" height="12" rx="2" class="cricket-level-2" />
<rect x="460.0" y="117.5" width="12" height="12" rx="2" class="cricket-level-2" />
<rect x="460.0" y="132.5" width="12" height="12" rx="2" class="cricket-level-2" />
<rect x="460.0" y="147.5" width="12" height="12" rx="2" class="cricket-level-2" />
<rect x="475.0" y="57.5" width="12" height="12" rx="2" class="cricket-level-2" />
<rect x="475.0" y="72.5" width="12" height="12" rx="2" class="cricket-level-1" />
<rect x="475.0" y="87.5" width="12" height="12" rx="2" class="cricket-level-1" />
<rect x="475.0" y="102.5" width="12" height="12" rx="2" class="cricket-level-1" />
<rect x="475.0" y="117.5" width="12" height="12" rx="2" class="cricket-level-2" />
<rect x="475.0" y="132.5" width="12" height="12" rx="2" class="cricket-level-2" />
<rect x="475.0" y="147.5" width="12" height="12" rx="2" class="cricket-level-2" />
<rect x="490.0" y="57.5" width="12" height="12" rx="2" class="cricket-level-4" />
<rect x="490.0" y="72.5" width="12" height="12" rx="2" class="cricket-level-1" />
<rect x="490.0" y="87.5" width="12" height="12" rx="2" class="cricket-level-1" />
<rect x="490.0" y="102.5" width="12" height="12" rx="2" class="cricket-level-1" />
<rect x="490.0" y="117.5" width="12" height="12" rx="2" class="cricket-level-1" />
<rect x="490.0" y="132.5" width="12" height="12" rx="2" class="cricket-level-1" />
<rect x="490.0" y="147.5" width="12" height="12" rx="2" class="cricket-level-2" />
<rect x="505.0" y="57.5" width="12" height="12" rx="2" class="cricket-level-1" />
<rect x="505.0" y="72.5" width="12" height="12" rx="2" class="cricket-level-3" />
<rect x="505.0" y="87.5" width="12" height="12" rx="2" class="cricket-level-1" />
<rect x="505.0" y="102.5" width="12" height="12" rx="2" class="cricket-level-1" />
<rect x="505.0" y="117.5" width="12" height="12" rx="2" class="cricket-level-1" />
<rect x="505.0" y="132.5" width="12" height="12" rx="2" class="cricket-level-1" />
<rect x="505.0" y="147.5" width="12" height="12" rx="2" class="cricket-level-2" />
<rect x="520.0" y="57.5" width="12" height="12" rx="2" class="cricket-level-1" />
<rect x="520.0" y="72.5" width="12" height="12" rx="2" class="cricket-level-2" />
<rect x="520.0" y="87.5" width="12" height="12" rx="2" class="cricket-level-3" />
<rect x="520.0" y="102.5" width="12" height="12" rx="2" class="cricket-level-2" />
<rect x="520.0" y="117.5" width="12" height="12" rx="2" class="cricket-level-4" />
<rect x="520.0" y="132.5" width="12" height="12" rx="2" class="cricket-level-1" />
<rect x="520.0" y="147.5" width="12" height="12" rx="2" class="cricket-level-3" />
<rect x="535.0" y="57.5" width="12" height="12" rx="2" class="cricket-level-1" />
<rect x="535.0" y="72.5" width="12" height="12" rx="2" class="cricket-level-2" />
<rect x="535.0" y="87.5" width="12" height="12" rx="2" class="cricket-level-1" />
<rect x="535.0" y="102.5" width="12" height="12" rx="2" class="cricket-level-1" />
<rect x="535.0" y="117.5" width="12" height="12" rx="2" class="cricket-level-3" />
<rect x="535.0" y="132.5" width="12" height="12" rx="2" class="cricket-level-1" />
<rect x="535.0" y="147.5" width="12" height="12" rx="2" class="cricket-level-1" />
<rect x="550.0" y="57.5" width="12" height="12" rx="2" class="cricket-level-4" />
<rect x="550.0" y="72.5" width="12" height="12" rx="2" class="cricket-level-1" />
<rect x="550.0" y="87.5" width="12" height="12" rx="2" class="cricket-level-1" />
<rect x="550.0" y="102.5" width="12" height="12" rx="2" class="cricket-level-2" />
<rect x="550.0" y="117.5" width="12" height="12" rx="2" class="cricket-level-1" />
<rect x="550.0" y="132.5" width="12" height="12" rx="2" class="cricket-level-1" />
<rect x="550.0" y="147.5" width="12" height="12" rx="2" class="cricket-level-3" />
<rect x="565.0" y="57.5" width="12" height="12" rx="2" class="cricket-level-1" />
<rect x="565.0" y="72.5" width="12" height="12" rx="2" class="cricket-level-1" />
<rect x="565.0" y="87.5" width="12" height="12" rx="2" class="cricket-level-1" />
<rect x="565.0" y="102.5" width="12" height="12" rx="2" class="cricket-level-2" />
<rect x="565.0" y="117.5" width="12" height="12" rx="2" class="cricket-level-4" />
<rect x="565.0" y="132.5" width="12" height="12" rx="2" class="cricket-level-2" />
<rect x="565.0" y="147.5" width="12" height="12" rx="2" class="cricket-level-1" />
<rect x="580.0" y="57.5" width="12" height="12" rx="2" class="cricket-level-1" />
<rect x="580.0" y="72.5" width="12" height="12" rx="2" class="cricket-level-4" />
<rect x="580.0" y="87.5" width="12" height="12" rx="2" class="cricket-level-1" />
<rect x="580.0" y="102.5" width="12" height="12" rx="2" class="cricket-level-1" />
<rect x="580.0" y="117.5" width="12" height="12" rx="2" class="cricket-level-1" />
<rect x="580.0" y="132.5" width="12" height="12" rx="2" class="cricket-level-1" />
<rect x="580.0" y="147.5" width="12" height="12" rx="2" class="cricket-level-2" />
<rect x="595.0" y="57.5" width="12" height="12" rx="2" class="cricket-level-2" />
<rect x="595.0" y="72.5" width="12" height="12" rx="2" class="cricket-level-1" />
<rect x="595.0" y="87.5" width="12" height="12" rx="2" class="cricket-level-2" />
<rect x="595.0" y="102.5" width="12" height="12" rx="2" class="cricket-level-3" />
<rect x="595.0" y="117.5" width="12" height="12" rx="2" class="cricket-level-3" />
<rect x="595.0" y="132.5" width="12" height="12" rx="2" class="cricket-level-2" />
<rect x="595.0" y="147.5" width="12" height="12" rx="2" class="cricket-level-1" />
<rect x="610.0" y="57.5" width="12" height="12" rx="2" class="cricket-level-1" />
<rect x="610.0" y="72.5" width="12" height="12" rx="2" class="cricket-level-3" />
<rect x="610.0" y="87.5" width="12" height="12" rx="2" class="cricket-level-2" />
<rect x="610.0" y="102.5" width="12" height="12" rx="2" class="cricket-level-2" />
<rect x="610.0" y="117.5" width="12" height="12" rx="2" class="cricket-level-3" />
<rect x="610.0" y="132.5" width="12" height="12" rx="2" class="cricket-level-2" />
<rect x="610.0" y="147.5" width="12" height="12" rx="2" class="cricket-level-1" />
<rect x="625.0" y="57.5" width="12" height="12" rx="2" class="cricket-level-3" />
<rect x="625.0" y="72.5" width="12" height="12" rx="2" class="cricket-level-1" />
<rect x="625.0" y="87.5" width="12" height="12" rx="2" class="cricket-level-1" />
<rect x="625.0" y="102.5" width="12" height="12" rx="2" class="cricket-level-1" />
<rect x="625.0" y="117.5" width="12" height="12" rx="2" class="cricket-level-4" />
<rect x="625.0" y="132.5" width="12" height="12" rx="2" class="cricket-level-1" />
<rect x="625.0" y="147.5" width="12" height="12" rx="2" class="cricket-level-1" />
<rect x="640.0" y="57.5" width="12" height="12" rx="2" class="cricket-level-1" />
<rect x="640.0" y="72.5" width="12" height="12" rx="2" class="cricket-level-1" />
<rect x="640.0" y="87.5" width="12" height="12" rx="2" class="cricket-level-1" />
<rect x="640.0" y="102.5" width="12" height="12" rx="2" class="cricket-level-1" />
<rect x="640.0" y="117.5" width="12" height="12" rx="2" class="cricket-level-1" />
<rect x="640.0" y="132.5" width="12" height="12" rx="2" class="cricket-level-1" />
<rect x="640.0" y="147.5" width="12" height="12" rx="2" class="cricket-level-2" />
<rect x="655.0" y="57.5" width="12" height="12" rx="2" class="cricket-level-4" />
<rect x="655.0" y="72.5" width="12" height="12" rx="2" class="cricket-level-4" />
<rect x="655.0" y="87.5" width="12" height="12" rx="2" class="cricket-level-2" />
<rect x="655.0" y="102.5" width="12" height="12" rx="2" class="cricket-level-2" />
<rect x="655.0" y="117.5" width="12" height="12" rx="2" class="cricket-level-1" />
<rect x="655.0" y="132.5" width="12" height="12" rx="2" class="cricket-level-2" />
<rect x="655.0" y="147.5" width="12" height="12" rx="2" class="cricket-level-1" />
<rect x="670.0" y="57.5" width="12" height="12" rx="2" class="cricket-level-3" />
<rect x="670.0" y="72.5" width="12" height="12" rx="2" class="cricket-level-1" />
<rect x="670.0" y="87.5" width="12" height="12" rx="2" class="cricket-level-4" />
<rect x="670.0" y="102.5" width="12" height="12" rx="2" class="cricket-level-4" />
<rect x="670.0" y="117.5" width="12" height="12" rx="2" class="cricket-level-2" />
<rect x="670.0" y="132.5" width="12" height="12" rx="2" class="cricket-level-4" />
<rect x="670.0" y="147.5" width="12" height="12" rx="2" class="cricket-level-3" />
<rect x="685.0" y="57.5" width="12" height="12" rx="2" class="cricket-level-1" />
<rect x="685.0" y="72.5" width="12" height="12" rx="2" class="cricket-level-2" />
<rect x="685.0" y="87.5" width="12" height="12" rx="2" class="cricket-level-3" />
<rect x="685.0" y="102.5" width="12" height="12" rx="2" class="cricket-level-1" />
<rect x="685.0" y="117.5" width="12" height="12" rx="2" class="cricket-level-1" />
<rect x="685.0" y="132.5" width="12" height="12" rx="2" class="cricket-level-1" />
<rect x="685.0" y="147.5" width="12" height="12" rx="2" class="cricket-level-1" />
<rect x="700.0" y="57.5" width="12" height="12" rx="2" class="cricket-level-1" />
<rect x="700.0" y="72.5" width="12" height="12" rx="2" class="cricket-level-2" />
<rect x="700.0" y="87.5" width="12" height="12" rx="2" class="cricket-level-3" />
<rect x="700.0" y="102.5" width="12" height="12" rx="2" class="cricket-level-1" />
<rect x="700.0" y="117.5" width="12" height="12" rx="2" class="cricket-level-1" />
<rect x="700.0" y="132.5" width="12" height="12" rx="2" class="cricket-level-3" />
<rect x="700.0" y="147.5" width="12" height="12" rx="2" class="cricket-level-2" />
<rect x="715.0" y="57.5" width="12" height="12" rx="2" class="cricket-level-1" />
<rect x="715.0" y="72.5" width="12" height="12" rx="2" class="cricket-level-1" />
<rect x="715.0" y="87.5" width="12" height="12" rx="2" class="cricket-level-1" />
<rect x="715.0" y="102.5" width="12" height="12" rx="2" class="cricket-level-2" />
<rect x="715.0" y="117.5" width="12" height="12" rx="2" class="cricket-level-1" />
<rect x="715.0" y="132.5" width="12" height="12" rx="2" class="cricket-level-2" />
<rect x="715.0" y="147.5" width="12" height="12" rx="2" class="cricket-level-1" />
<rect x="730.0" y="57.5" width="12" height="12" rx="2" class="cricket-level-1" />
<rect x="730.0" y="72.5" width="12" height="12" rx="2" class="cricket-level-2" />
<rect x="730.0" y="87.5" width="12" height="12" rx="2" class="cricket-level-2" />
<rect x="730.0" y="102.5" width="12" height="12" rx="2" class="cricket-level-1" />
<rect x="730.0" y="117.5" width="12" height="12" rx="2" class="cricket-level-2" />
<rect x="730.0" y="132.5" width="12" height="12" rx="2" class="cricket-level-2" />
<rect x="730.0" y="147.5" width="12" height="12" rx="2" class="cricket-level-2" />
<rect x="745.0" y="57.5" width="12" height="12" rx="2" class="cricket-level-1" />
<rect x="745.0" y="72.5" width="12" height="12" rx="2" class="cricket-level-1" />
<rect x="745.0" y="87.5" width="12" height="12" rx="2" class="cricket-level-2" />
<rect x="745.0" y="102.5" width="12" height="12" rx="2" class="cricket-level-1" />
<rect x="745.0" y="117.5" width="12" height="12" rx="2" class="cricket-level-2" />
<rect x="745.0" y="132.5" width="12" height="12" rx="2" class="cricket-level-2" />
<rect x="745.0" y="147.5" width="12" height="12" rx="2" class="cricket-level-2" />
<rect x="760.0" y="57.5" width="12" height="12" rx="2" class="cricket-level-1" />
<rect x="760.0" y="72.5" width="12" height="12" rx="2" class="cricket-level-1" />
<rect x="760.0" y="87.5" width="12" height="12" rx="2" class="cricket-level-3" />
<rect x="760.0" y="102.5" width="12" height="12" rx="2" class="cricket-level-1" />
<rect x="760.0" y="117.5" width="12" height="12" rx="2" class="cricket-level-1" />
<rect x="760.0" y="132.5" width="12" height="12" rx="2" class="cricket-level-4" />
<rect x="760.0" y="147.5" width="12" height="12" rx="2" class="cricket-level-4" />
<rect x="775.0" y="57.5" width="12" height="12" rx="2" class="cricket-level-2" />
<rect x="775.0" y="72.5" width="12" height="12" rx="2" class="cricket-level-1" />
<rect x="775.0" y="87.5" width="12" height="12" rx="2" class="cricket-level-1" />
<rect x="775.0" y="102.5" width="12" height="12" rx="2" class="cricket-level-1" />
<rect x="775.0" y="117.5" width="12" height="12" rx="2" class="cricket-level-4" />
<rect x="775.0" y="132.5" width="12" height="12" rx="2" class="cricket-level-3" />
<rect x="775.0" y="147.5" width="12" height="12" rx="2" class="cricket-level-2" />

  
  <!-- Batsman minimal pixel art / silhouette -->
  <g transform="translate(-45.0, 90.0)" class="cricket-batsman">
    <rect x="10" y="0" width="10" height="10" rx="5" /> <!-- Head -->
    <rect x="5" y="12" width="20" height="20" rx="3" /> <!-- Torso -->
    <rect x="5" y="34" width="8" height="15" rx="3" /> <!-- Leg -->
    <rect x="17" y="34" width="8" height="15" rx="3" /> <!-- Leg -->
    <!-- Bat -->
    <rect x="22" y="10" width="5" height="25" class="cricket-bat" transform="rotate(-30 22 10)" /> 
  </g>

  <!-- Animations -->
  <path id="cricket-path0" d="M -30.0 110.0 Q 8.0 50.0 46.0 138.5" fill="none" />
<circle r="4" class="cricket-ball" style="offset-path: url(#cricket-path0); animation: cricket-hit0 16s linear infinite;" />

        <g style="animation: cricket-pop0 16s ease-out infinite; transform-origin: 46.0px 138.5px;">
            <text x="46.0" y="138.5" class="cricket-popup cricket-popup-accent">W</text>
        </g>
        <path id="cricket-path1" d="M -30.0 110.0 Q 23.0 33.5 76.0 93.5" fill="none" />
<circle r="4" class="cricket-ball" style="offset-path: url(#cricket-path1); animation: cricket-hit1 16s linear infinite;" />

        <g style="animation: cricket-pop1 16s ease-out infinite; transform-origin: 76.0px 93.5px;">
            <text x="76.0" y="93.5" class="cricket-popup cricket-popup-accent">W</text>
        </g>
        <path id="cricket-path2" d="M -30.0 110.0 Q 38.0 48.5 106.0 108.5" fill="none" />
<circle r="4" class="cricket-ball" style="offset-path: url(#cricket-path2); animation: cricket-hit2 16s linear infinite;" />

        <g style="animation: cricket-pop2 16s ease-out infinite; transform-origin: 106.0px 108.5px;">
            <text x="106.0" y="108.5" class="cricket-popup cricket-popup-accent">W</text>
        </g>
        <path id="cricket-path3" d="M -30.0 110.0 Q 60.5 33.5 151.0 93.5" fill="none" />
<circle r="4" class="cricket-ball" style="offset-path: url(#cricket-path3); animation: cricket-hit3 16s linear infinite;" />

        <g style="animation: cricket-pop3 16s ease-out infinite; transform-origin: 151.0px 93.5px;">
            <text x="151.0" y="93.5" class="cricket-popup cricket-popup-accent">W</text>
        </g>
        <path id="cricket-path4" d="M -30.0 110.0 Q 98.0 50.0 226.0 138.5" fill="none" />
<circle r="4" class="cricket-ball" style="offset-path: url(#cricket-path4); animation: cricket-hit4 16s linear infinite;" />

        <g style="animation: cricket-pop4 16s ease-out infinite; transform-origin: 226.0px 138.5px;">
            <text x="226.0" y="138.5" class="cricket-popup cricket-popup-accent">W</text>
        </g>
        <path id="cricket-path5" d="M -30.0 110.0 Q 105.5 3.5 241.0 63.5" fill="none" />
<circle r="4" class="cricket-ball" style="offset-path: url(#cricket-path5); animation: cricket-hit5 16s linear infinite;" />

        <g style="animation: cricket-pop5 16s ease-out infinite; transform-origin: 241.0px 63.5px;">
            <text x="241.0" y="63.5" class="cricket-popup cricket-popup-contrast">2</text>
        </g>
        <path id="cricket-path6" d="M -30.0 110.0 Q 173.0 50.0 376.0 153.5" fill="none" />
<circle r="4" class="cricket-ball" style="offset-path: url(#cricket-path6); animation: cricket-hit6 16s linear infinite;" />

        <g style="animation: cricket-pop6 16s ease-out infinite; transform-origin: 376.0px 153.5px;">
            <text x="376.0" y="153.5" class="cricket-popup cricket-popup-accent">W</text>
        </g>
        <path id="cricket-path7" d="M -30.0 110.0 Q 263.0 18.5 556.0 78.5" fill="none" />
<circle r="4" class="cricket-ball" style="offset-path: url(#cricket-path7); animation: cricket-hit7 16s linear infinite;" />

        <g style="animation: cricket-pop7 16s ease-out infinite; transform-origin: 556.0px 78.5px;">
            <text x="556.0" y="78.5" class="cricket-popup cricket-popup-accent">W</text>
        </g>
        

</svg>