<svg width="800" height="200" viewBox="0 0 800 200" xmlns="http://www.w3.org/2000/svg">
  <defs>
    <style>
      @import url('https://fonts.googleapis.com/css2?family=Outfit:wght@900&amp;display=swap');
      
      :root {
        --bg-color: #0f172a;
        --fg-color: #f8fafc;
        --ac-color: #38bdf8;
      }
      
      @media (prefers-color-scheme: light) {
        :root {
          --bg-color: #ffffff;
          --fg-color: #0f172a;
          --ac-color: #38bdf8;
        }
      }
      
      .cricket-bg { fill: var(--bg-color); }
      .cricket-title { font-family: 'Outfit', sans-serif; font-size: 14px; fill: var(--fg-color); opacity: 0.6; font-weight: bold; letter-spacing: 2px; }
      
      .cricket-level-0 { fill: var(--bg-color); stroke: var(--fg-color); stroke-width: 0.5; stroke-opacity: 0.1; }
      /* 3-Color Logic: Variations of Contrast (White) on Base (Navy) */
      .cricket-level-1 { fill: var(--fg-color); opacity: 0.05; }
      .cricket-level-2 { fill: var(--fg-color); opacity: 0.3; }
      .cricket-level-3 { fill: var(--fg-color); opacity: 0.6; }
      .cricket-level-4 { fill: var(--fg-color); opacity: 1.0; }
      
      .cricket-ball { fill: var(--ac-color); filter: drop-shadow(0 0 4px var(--ac-color)); }
      .cricket-popup { font-family: 'Outfit', sans-serif; font-size: 24px; font-weight: 900; text-anchor: middle; }
      
      .cricket-popup-contrast { fill: var(--fg-color); filter: drop-shadow(0 0 8px rgba(255,255,255,0.2)); }
      .cricket-popup-accent { fill: var(--ac-color); filter: drop-shadow(0 0 8px var(--ac-color)); }
      
      /* The Batsman Silhouette */
      .cricket-batsman { fill: var(--fg-color); opacity: 0.5; }
      .cricket-bat { fill: var(--ac-color); }
      
      
        @keyframes cricket-pop0 {
            0%, 8.75% { transform: translate(0,0) scale(0.5); opacity: 0; }
            9.375% { transform: translate(0,-10px) scale(1.5); opacity: 1; }
            15.625% { transform: translate(0,-30px) scale(1); opacity: 1; }
            18.75%, 100% { transform: translate(0,-40px) scale(1); opacity: 0; }
        }
        
        @keyframes cricket-pop1 {
            0%, 21.25% { transform: translate(0,0) scale(0.5); opacity: 0; }
            21.875% { transform: translate(0,-10px) scale(1.5); opacity: 1; }
            28.125% { transform: translate(0,-30px) scale(1); opacity: 1; }
            31.25%, 100% { transform: translate(0,-40px) scale(1); opacity: 0; }
        }
        
        @keyframes cricket-pop2 {
            0%, 33.75% { transform: translate(0,0) scale(0.5); opacity: 0; }
            34.375% { transform: translate(0,-10px) scale(1.5); opacity: 1; }
            40.625% { transform: translate(0,-30px) scale(1); opacity: 1; }
            43.75%, 100% { transform: translate(0,-40px) scale(1); opacity: 0; }
        }
        
        @keyframes cricket-pop3 {
            0%, 46.25% { transform: translate(0,0) scale(0.5); opacity: 0; }
            46.875% { transform: translate(0,-10px) scale(1.5); opacity: 1; }
            53.125% { transform: translate(0,-30px) scale(1); opacity: 1; }
            56.25%, 100% { transform: translate(0,-40px) scale(1); opacity: 0; }
        }
        
        @keyframes cricket-pop4 {
            0%, 58.75% { transform: translate(0,0) scale(0.5); opacity: 0; }
            59.375% { transform: translate(0,-10px) scale(1.5); opacity: 1; }
            65.625% { transform: translate(0,-30px) scale(1); opacity: 1; }
            68.75%, 100% { transform: translate(0,-40px) scale(1); opacity: 0; }
        }
        
        @keyframes cricket-pop5 {
            0%, 71.25% { transform: translate(0,0) scale(0.5); opacity: 0; }
            71.875% { transform: translate(0,-10px) scale(1.5); opacity: 1; }
            78.125% { transform: translate(0,-30px) scale(1); opacity: 1; }
            81.25%, 100% { transform: translate(0,-40px) scale(1); opacity: 0; }
        }
        
        @keyframes cricket-pop6 {
            0%, 83.75% { transform: translate(0,0) scale(0.5); opacity: 0; }
            84.375% { transform: translate(0,-10px) scale(1.5); opacity: 1; }
            90.625% { transform: translate(0,-30px) scale(1); opacity: 1; }
            93.75%, 100% { transform: translate(0,-40px) scale(1); opacity: 0; }
        }
        
        @keyframes cricket-pop7 {
            0%, 96.25% { transform: translate(0,0) scale(0.5); opacity: 0; }
            96.875% { transform: translate(0,-10px) scale(1.5); opacity: 1; }
            103.125% { transform: translate(0,-30px) scale(1); opacity: 1; }
            106.25%, 100% { transform: translate(0,-40px) scale(1); opacity: 0; }
        }
        
    </style>
  </defs>

  <!-- Background -->
  <rect class="cricket-bg" width="800" height="200" />
  <text x="20" y="30" class="cricket-title">CRICKET CONTRIBUTION GRAPH // LAST 365 DAYS</text>

  <!-- Grid -->
  <rect x="2.5" y="57.5" width="12" height="12" rx="2" class="cricket-level-0" />
<rect x="2.5" y="72.5" width="12" height="12" rx="2" class="cricket-level-0" />
<rect x="2.5" y="87.5" width="12" height="12" rx="2" class="cricket-level-0" />
<rect x="2.5" y="102.5" width="12" height="12" rx="2" class="cricket-level-0" />
<rect x="2.5" y="117.5" width="12" height="12" rx="2" class="cricket-level-0" />
<rect x="2.5" y="132.5" width="12" height="12" rx="2" class="cricket-level-0" />
<rect x="2.5" y="147.5" width="12" height="12" rx="2" class="cricket-level-0" />
<rect x="17.5" y="57.5" width="12" height="12" rx="2" class="cricket-level-0" />
<rect x="17.5" y="72.5" width="12" height="12" rx="2" class="cricket-level-0" />
<rect x="17.5" y="87.5" width="12" height="12" rx="2" class="cricket-level-0" />
<rect x="17.5" y="102.5" width="12" height="12" rx="2" class="cricket-level-0" />
<rect x="17.5" y="117.5" width="12" height="12" rx="2" class="cricket-level-0" />
<rect x="17.5" y="132.5" width="12" height="12" rx="2" class="cricket-level-0" />
<rect x="17.5" y="147.5" width="12" height="12" rx="2" class="cricket-level-0" />
<rect x="32.5" y="57.5" width="12" height="12" rx="2" class="cricket-level-0" />
<rect x="32.5" y="72.5" width="12" height="12" rx="2" class="cricket-level-0" />
<rect x="32.5" y="87.5" width="12" height="12" rx="2" class="cricket-level-0" />
<rect x="32.5" y="102.5" width="12" height="12" rx="2" class="cricket-level-0" />
<rect x="32.5" y="117.5" width="12" height="12" rx="2" class="cricket-level-0" />
<rect x="32.5" y="132.5" width="12" height="12" rx="2" class="cricket-level-0" />
<rect x="32.5" y="147.5" width="12" height="12" rx="2" class="cricket-level-0" />
<rect x="47.5" y="57.5" width="12" height="12" rx="2" class="cricket-level-0" />
<rect x="47.5" y="72.5" width="12" height="12" rx="2" class="cricket-level-0" />
<rect x="47.5" y="87.5" width="12" height="12" rx="2" class="cricket-level-0" />
<rect x="47.5" y="102.5" width="12" height="12" rx="2" class="cricket-level-0" />
<rect x="47.5" y="117.5" width="12" height="12" rx="2" class="cricket-level-0" />
<rect x="47.5" y="132.5" width="12" height="12" rx="2" class="cricket-level-0" />
<rect x="47.5" y="147.5" width="12" height="12" rx="2" class="cricket-level-0" />
<rect x="62.5" y="57.5" width="12" height="12" rx="2" class="cricket-level-0" />
<rect x="62.5" y="72.5" width="12" height="12" rx="2" class="cricket-level-0" />
<rect x="62.5" y="87.5" width="12" height="12" rx="2" class="cricket-level-0" />
<rect x="62.5" y="102.5" width="12" height="12" rx="2" class="cricket-level-0" />
<rect x="62.5" y="117.5" width="12" height="12" rx="2" class="cricket-level-0" />
<rect x="62.5" y="132.5" width="12" height="12" rx="2" class="cricket-level-0" />
<rect x="62.5" y="147.5" width="12" height="12" rx="2" class="cricket-level-0" />
<rect x="77.5" y="57.5" width="12" height="12" rx="2" class="cricket-level-0" />
<rect x="77.5" y="72.5" width="12" height="12" rx="2" class="cricket-level-0" />
<rect x="77.5" y="87.5" width="12" height="12" rx="2" class="cricket-level-0" />
<rect x="77.5" y="102.5" width="12" height="12" rx="2" class="cricket-level-0" />
<rect x="77.5" y="117.5" width="12" height="12" rx="2" class="cricket-level-0" />
<rect x="77.5" y="132.5" width="12" height="12" rx="2" class="cricket-level-0" />
<rect x="77.5" y="147.5" width="12" height="12" rx="2" class="cricket-level-0" />
<rect x="92.5" y="57.5" width="12" height="12" rx="2" class="cricket-level-0" />
<rect x="92.5" y="72.5" width="12" height="12" rx="2" class="cricket-level-0" />
<rect x="92.5" y="87.5" width="12" height="12" rx="2" class="cricket-level-0" />
<rect x="92.5" y="102.5" width="12" height="12" rx="2" class="cricket-level-0" />
<rect x="92.5" y="117.5" width="12" height="12" rx="2" class="cricket-level-0" />
<rect x="92.5" y="132.5" width="12" height="12" rx="2" class="cricket-level-0" />
<rect x="92.5" y="147.5" width="12" height="12" rx="2" class="cricket-level-0" />
<rect x="107.5" y="57.5" width="12" height="12" rx="2" class="cricket-level-0" />
<rect x="107.5" y="72.5" width="12" height="12" rx="2" class="cricket-level-0" />
<rect x="107.5" y="87.5" width="12" height="12" rx="2" class="cricket-level-0" />
<rect x="107.5" y="102.5" width="12" height="12" rx="2" class="cricket-level-2" />
<rect x="107.5" y="117.5" width="12" height="12" rx="2" class="cricket-level-0" />
<rect x="107.5" y="132.5" width="12" height="12" rx="2" class="cricket-level-0" />
<rect x="107.5" y="147.5" width="12" height="12" rx="2" class="cricket-level-0" />
<rect x="122.5" y="57.5" width="12" height="12" rx="2" class="cricket-level-0" />
<rect x="122.5" y="72.5" width="12" height="12" rx="2" class="cricket-level-0" />
<rect x="122.5" y="87.5" width="12" height="12" rx="2" class="cricket-level-0" />
<rect x="122.5" y="102.5" width="12" height="12" rx="2" class="cricket-level-0" />
<rect x="122.5" y="117.5" width="12" height="12" rx="2" class="cricket-level-0" />
<rect x="122.5" y="132.5" width="12" height="12" rx="2" class="cricket-level-0" />
<rect x="122.5" y="147.5" width="12" height="12" rx="2" class="cricket-level-0" />
<rect x="137.5" y="57.5" width="12" height="12" rx="2" class="cricket-level-0" />
<rect x="137.5" y="72.5" width="12" height="12" rx="2" class="cricket-level-0" />
<rect x="137.5" y="87.5" width="12" height="12" rx="2" class="cricket-level-0" />
<rect x="137.5" y="102.5" width="12" height="12" rx="2" class="cricket-level-0" />
<rect x="137.5" y="117.5" width="12" height="12" rx="2" class="cricket-level-0" />
<rect x="137.5" y="132.5" width="12" height="12" rx="2" class="cricket-level-0" />
<rect x="137.5" y="147.5" width="12" height="12" rx="2" class="cricket-level-0" />
<rect x="152.5" y="57.5" width="12" height="12" rx="2" class="cricket-level-0" />
<rect x="152.5" y="72.5" width="12" height="12" rx="2" class="cricket-level-0" />
<rect x="152.5" y="87.5" width="12" height="12" rx="2" class="cricket-level-0" />
<rect x="152.5" y="102.5" width="12" height="12" rx="2" class="cricket-level-0" />
<rect x="152.5" y="117.5" width="12" height="12" rx="2" class="cricket-level-0" />
<rect x="152.5" y="132.5" width="12" height="12" rx="2" class="cricket-level-0" />
<rect x="152.5" y="147.5" width="12" height="12" rx="2" class="cricket-level-0" />
<rect x="167.5" y="57.5" width="12" height="12" rx="2" class="cricket-level-0" />
<rect x="167.5" y="72.5" width="12" height="12" rx="2" class="cricket-level-0" />
<rect x="167.5" y="87.5" width="12" height="12" rx="2" class="cricket-level-0" />
<rect x="167.5" y="102.5" width="12" height="12" rx="2" class="cricket-level-0" />
<rect x="167.5" y="117.5" width="12" height="12" rx="2" class="cricket-level-0" />
<rect x="167.5" y="132.5" width="12" height="12" rx="2" class="cricket-level-0" />
<rect x="167.5" y="147.5" width="12" height="12" rx="2" class="cricket-level-0" />
<rect x="182.5" y="57.5" width="12" height="12" rx="2" class="cricket-level-0" />
<rect x="182.5" y="72.5" width="12" height="12" rx="2" class="cricket-level-0" />
<rect x="182.5" y="87.5" width="12" height="12" rx="2" class="cricket-level-0" />
<rect x="182.5" y="102.5" width="12" height="12" rx="2" class="cricket-level-0" />
<rect x="182.5" y="117.5" width="12" height="12" rx="2" class="cricket-level-0" />
<rect x="182.5" y="132.5" width="12" height="12" rx="2" class="cricket-level-0" />
<rect x="182.5" y="147.5" width="12" height="12" rx="2" class="cricket-level-0" />
<rect x="197.5" y="57.5" width="12" height="12" rx="2" class="cricket-level-0" />
<rect x="197.5" y="72.5" width="12" height="12" rx="2" class="cricket-level-0" />
<rect x="197.5" y="87.5" width="12" height="12" rx="2" class="cricket-level-0" />
<rect x="197.5" y="102.5" width="12" height="12" rx="2" class="cricket-level-0" />
<rect x="197.5" y="117.5" width="12" height="12" rx="2" class="cricket-level-0" />
<rect x="197.5" y="132.5" width="12" height="12" rx="2" class="cricket-level-0" />
<rect x="197.5" y="147.5" width="12" height="12" rx="2" class="cricket-level-0" />
<rect x="212.5" y="57.5" width="12" height="12" rx="2" class="cricket-level-0" />
<rect x="212.5" y="72.5" width="12" height="12" rx="2" class="cricket-level-0" />
<rect x="212.5" y="87.5" width="12" height="12" rx="2" class="cricket-level-0" />
<rect x="212.5" y="102.5" width="12" height="12" rx="2" class="cricket-level-0" />
<rect x="212.5" y="117.5" width="12" height="12" rx="2" class="cricket-level-0" />
<rect x="212.5" y="132.5" width="12" height="12" rx="2" class="cricket-level-0" />
<rect x="212.5" y="147.5" width="12" height="12" rx="2" class="cricket-level-1" />
<rect x="227.5" y="57.5" width="12" height="12" rx="2" class="cricket-level-1" />
<rect x="227.5" y="72.5" width="12" height="12" rx="2" class="cricket-level-0" />
<rect x="227.5" y="87.5" width="12" height="12" rx="2" class="cricket-level-0" />
<rect x="227.5" y="102.5" width="12" height="12" rx="2" class="cricket-level-0" />
<rect x="227.5" y="117.5" width="12" height="12" rx="2" class="cricket-level-0" />
<rect x="227.5" y="132.5" width="12" height="12" rx="2" class="cricket-level-0" />
<rect x="227.5" y="147.5" width="12" height="12" rx="2" class="cricket-level-0" />
<rect x="242.5" y="57.5" width="12" height="12" rx="2" class="cricket-level-0" />
<rect x="242.5" y="72.5" width="12" height="12" rx="2" class="cricket-level-0" />
<rect x="242.5" y="87.5" width="12" height="12" rx="2" class="cricket-level-0" />
<rect x="242.5" y="102.5" width="12" height="12" rx="2" class="cricket-level-0" />
<rect x="242.5" y="117.5" width="12" height="12" rx="2" class="cricket-level-0" />
<rect x="242.5" y="132.5" width="12" height="12" rx="2" class="cricket-level-0" />
<rect x="242.5" y="147.5" width="12" height="12" rx="2" class="cricket-level-0" />
<rect x="257.5" y="57.5" width="12" height="12" rx="2" class="cricket-level-0" />
<rect x="257.5" y="72.5" width="12" height="12" rx="2" class="cricket-level-0" />
<rect x="257.5" y="87.5" width="12" height="12" rx="2" class="cricket-level-0" />
<rect x="257.5" y="102.5" width="12" height="12" rx="2" class="cricket-level-0" />
<rect x="257.5" y="117.5" width="12" height="12" rx="2" class="cricket-level-0" />
<rect x="257.5" y="132.5" width="12" height="12" rx="2" class="cricket-level-0" />
<rect x="257.5" y="147.5" width="12" height="12" rx="2" class="cricket-level-0" />
<rect x="272.5" y="57.5" width="12" height="12" rx="2" class="cricket-level-3" />
<rect x="272.5" y="72.5" width="12" height="12" rx="2" class="cricket-level-0" />
<rect x="272.5" y="87.5" width="12" height="12" rx="2" class="cricket-level-0" />
<rect x="272.5" y="102.5" width="12" height="12" rx="2" class="cricket-level-0" />
<rect x="272.5" y="117.5" width="12" height="12" rx="2" class="cricket-level-0" />
<rect x="272.5" y="132.5" width="12" height="12" rx="2" class="cricket-level-0" />
<rect x="272.5" y="147.5" width="12" height="12" rx="2" class="cricket-level-0" />
<rect x="287.5" y="57.5" width="12" height="12" rx="2" class="cricket-level-0" />
<rect x="287.5" y="72.5" width="12" height="12" rx="2" class="cricket-level-0" />
<rect x="287.5" y="87.5" width="12" height="12" rx="2" class="cricket-level-0" />
<rect x="287.5" y="102.5" width="12" height="12" rx="2" class="cricket-level-0" />
<rect x="287.5" y="117.5" width="12" height="12" rx="2" class="cricket-level-0" />
<rect x="287.5" y="132.5" width="12" height="12" rx="2" class="cricket-level-0" />
<rect x="287.5" y="147.5" width="12" height="12" rx="2" class="cricket-level-0" />
<rect x="302.5" y="57.5" width="12" height="12" rx="2" class="cricket-level-0" />
<rect x="302.5" y="72.5" width="12" height="12" rx="2" class="cricket-level-0" />
<rect x="302.5" y="87.5" width="12" height="12" rx="2" class="cricket-level-0" />
<rect x="302.5" y="102.5" width="12" height="12" rx="2" class="cricket-level-0" />
<rect x="302.5" y="117.5" width="12" height="12" rx="2" class="cricket-level-0" />
<rect x="302.5" y="132.5" width="12" height="12" rx="2" class="cricket-level-0" />
<rect x="302.5" y="147.5" width="12" height="12" rx="2" class="cricket-level-0" />
<rect x="317.5" y="57.5" width="12" height="12" rx="2" class="cricket-level-0" />
<rect x="317.5" y="72.5" width="12" height="12" rx="2" class="cricket-level-0" />
<rect x="317.5" y="87.5" width="12" height="12" rx="2" class="cricket-level-0" />
<rect x="317.5" y="102.5" width="12" height="12" rx="2" class="cricket-level-0" />
<rect x="317.5" y="117.5" width="12" height="12" rx="2" class="cricket-level-0" />
<rect x="317.5" y="132.5" width="12" height="12" rx="2" class="cricket-level-0" />
<rect x="317.5" y="147.5" width="12" height="12" rx="2" class="cricket-level-0" />
<rect x="332.5" y="57.5" width="12" height="12" rx="2" class="cricket-level-0" />
<rect x="332.5" y="72.5" width="12" height="12" rx="2" class="cricket-level-0" />
<rect x="332.5" y="87.5" width="12" height="12" rx="2" class="cricket-level-0" />
<rect x="332.5" y="102.5" width="12" height="12" rx="2" class="cricket-level-0" />
<rect x="332.5" y="117.5" width="12" height="12" rx="2" class="cricket-level-0" />
<rect x="332.5" y="132.5" width="12" height="12" rx="2" class="cricket-level-0" />
<rect x="332.5" y="147.5" width="12" height="12" rx="2" class="cricket-level-0" />
<rect x="347.5" y="57.5" width="12" height="12" rx="2" class="cricket-level-0" />
<rect x="347.5" y="72.5" width="12" height="12" rx="2" class="cricket-level-0" />
<rect x="347.5" y="87.5" width="12" height="12" rx="2" class="cricket-level-0" />
<rect x="347.5" y="102.5" width="12" height="12" rx="2" class="cricket-level-0" />
<rect x="347.5" y="117.5" width="12" height="12" rx="2" class="cricket-level-0" />
<rect x="347.5" y="132.5" width="12" height="12" rx="2" class="cricket-level-0" />
<rect x="347.5" y="147.5" width="12" height="12" rx="2" class="cricket-level-0" />
<rect x="362.5" y="57.5" width="12" height="12" rx="2" class="cricket-level-0" />
<rect x="362.5" y="72.5" width="12" height="12" rx="2" class="cricket-level-0" />
<rect x="362.5" y="87.5" width="12" height="12" rx="2" class="cricket-level-0" />
<rect x="362.5" y="102.5" width="12" height="12" rx="2" class="cricket-level-0" />
<rect x="362.5" y="117.5" width="12" height="12" rx="2" class="cricket-level-0" />
<rect x="362.5" y="132.5" width="12" height="12" rx="2" class="cricket-level-0" />
<rect x="362.5" y="147.5" width="12" height="12" rx="2" class="cricket-level-0" />
<rect x="377.5" y="57.5" width="12" height="12" rx="2" class="cricket-level-0" />
<rect x="377.5" y="72.5" width="12" height="12" rx="2" class="cricket-level-0" />
<rect x="377.5" y="87.5" width="12" height="12" rx="2" class="cricket-level-0" />
<rect x="377.5" y="102.5" width="12" height="12" rx="2" class="cricket-level-0" />
<rect x="377.5" y="117.5" width="12" height="12" rx="2" class="cricket-level-0" />
<rect x="377.5" y="132.5" width="12" height="12" rx="2" class="cricket-level-0" />
<rect x="377.5" y="147.5" width="12" height="12" rx="2" class="cricket-level-0" />
<rect x="392.5" y="57.5" width="12" height="12" rx="2" class="cricket-level-0" />
<rect x="392.5" y="72.5" width="12" height="12" rx="2" class="cricket-level-0" />
<rect x="392.5" y="87.5" width="12" height="12" rx="2" class="cricket-level-0" />
<rect x="392.5" y="102.5" width="12" height="12" rx="2" class="cricket-level-0" />
<rect x="392.5" y="117.5" width="12" height="12" rx="2" class="cricket-level-0" />
<rect x="392.5" y="132.5" width="12" height="12" rx="2" class="cricket-level-0" />
<rect x="392.5" y="147.5" width="12" height="12" rx="2" class="cricket-level-0" />
<rect x="407.5" y="57.5" width="12" height="12" rx="2" class="cricket-level-0" />
<rect x="407.5" y="72.5" width="12" height="12" rx="2" class="cricket-level-0" />
<rect x="407.5" y="87.5" width="12" height="12" rx="2" class="cricket-level-0" />
<rect x="407.5" y="102.5" width="12" height="12" rx="2" class="cricket-level-0" />
<rect x="407.5" y="117.5" width="12" height="12" rx="2" class="cricket-level-0" />
<rect x="407.5" y="132.5" width="12" height="12" rx="2" class="cricket-level-0" />
<rect x="407.5" y="147.5" width="12" height="12" rx="2" class="cricket-level-0" />
<rect x="422.5" y="57.5" width="12" height="12" rx="2" class="cricket-level-0" />
<rect x="422.5" y="72.5" width="12" height="12" rx="2" class="cricket-level-0" />
<rect x="422.5" y="87.5" width="12" height="12" rx="2" class="cricket-level-0" />
<rect x="422.5" y="102.5" width="12" height="12" rx="2" class="cricket-level-0" />
<rect x="422.5" y="117.5" width="12" height="12" rx="2" class="cricket-level-0" />
<rect x="422.5" y="132.5" width="12" height="12" rx="2" class="cricket-level-0" />
<rect x="422.5" y="147.5" width="12" height="12" rx="2" class="cricket-level-0" />
<rect x="437.5" y="57.5" width="12" height="12" rx="2" class="cricket-level-0" />
<rect x="437.5" y="72.5" width="12" height="12" rx="2" class="cricket-level-0" />
<rect x="437.5" y="87.5" width="12" height="12" rx="2" class="cricket-level-0" />
<rect x="437.5" y="102.5" width="12" height="12" rx="2" class="cricket-level-1" />
<rect x="437.5" y="117.5" width="12" height="12" rx="2" class="cricket-level-0" />
<rect x="437.5" y="132.5" width="12" height="12" rx="2" class="cricket-level-0" />
<rect x="437.5" y="147.5" width="12" height="12" rx="2" class="cricket-level-0" />
<rect x="452.5" y="57.5" width="12" height="12" rx="2" class="cricket-level-0" />
<rect x="452.5" y="72.5" width="12" height="12" rx="2" class="cricket-level-0" />
<rect x="452.5" y="87.5" width="12" height="12" rx="2" class="cricket-level-0" />
<rect x="452.5" y="102.5" width="12" height="12" rx="2" class="cricket-level-0" />
<rect x="452.5" y="117.5" width="12" height="12" rx="2" class="cricket-level-0" />
<rect x="452.5" y="132.5" width="12" height="12" rx="2" class="cricket-level-0" />
<rect x="452.5" y="147.5" width="12" height="12" rx="2" class="cricket-level-0" />
<rect x="467.5" y="57.5" width="12" height="12" rx="2" class="cricket-level-0" />
<rect x="467.5" y="72.5" width="12" height="12" rx="2" class="cricket-level-0" />
<rect x="467.5" y="87.5" width="12" height="12" rx="2" class="cricket-level-0" />
<rect x="467.5" y="102.5" width="12" height="12" rx="2" class="cricket-level-0" />
<rect x="467.5" y="117.5" width="12" height="12" rx="2" class="cricket-level-0" />
<rect x="467.5" y="132.5" width="12" height="12" rx="2" class="cricket-level-0" />
<rect x="467.5" y="147.5" width="12" height="12" rx="2" class="cricket-level-0" />
<rect x="482.5" y="57.5" width="12" height="12" rx="2" class="cricket-level-0" />
<rect x="482.5" y="72.5" width="12" height="12" rx="2" class="cricket-level-0" />
<rect x="482.5" y="87.5" width="12" height="12" rx="2" class="cricket-level-0" />
<rect x="482.5" y="102.5" width="12" height="12" rx="2" class="cricket-level-0" />
<rect x="482.5" y="117.5" width="12" height="12" rx="2" class="cricket-level-0" />
<rect x="482.5" y="132.5" width="12" height="12" rx="2" class="cricket-level-0" />
<rect x="482.5" y="147.5" width="12" height="12" rx="2" class="cricket-level-0" />
<rect x="497.5" y="57.5" width="12" height="12" rx="2" class="cricket-level-0" />
<rect x="497.5" y="72.5" width="12" height="12" rx="2" class="cricket-level-0" />
<rect x="497.5" y="87.5" width="12" height="12" rx="2" class="cricket-level-0" />
<rect x="497.5" y="102.5" width="12" height="12" rx="2" class="cricket-level-0" />
<rect x="497.5" y="117.5" width="12" height="12" rx="2" class="cricket-level-0" />
<rect x="497.5" y="132.5" width="12" height="12" rx="2" class="cricket-level-0" />
<rect x="497.5" y="147.5" width="12" height="12" rx="2" class="cricket-level-0" />
<rect x="512.5" y="57.5" width="12" height="12" rx="2" class="cricket-level-0" />
<rect x="512.5" y="72.5" width="12" height="12" rx="2" class="cricket-level-0" />
<rect x="512.5" y="87.5" width="12" height="12" rx="2" class="cricket-level-0" />
<rect x="512.5" y="102.5" width="12" height="12" rx="2" class="cricket-level-0" />
<rect x="512.5" y="117.5" width="12" height="12" rx="2" class="cricket-level-0" />
<rect x="512.5" y="132.5" width="12" height="12" rx="2" class="cricket-level-0" />
<rect x="512.5" y="147.5" width="12" height="12" rx="2" class="cricket-level-0" />
<rect x="527.5" y="57.5" width="12" height="12" rx="2" class="cricket-level-0" />
<rect x="527.5" y="72.5" width="12" height="12" rx="2" class="cricket-level-0" />
<rect x="527.5" y="87.5" width="12" height="12" rx="2" class="cricket-level-0" />
<rect x="527.5" y="102.5" width="12" height="12" rx="2" class="cricket-level-0" />
<rect x="527.5" y="117.5" width="12" height="12" rx="2" class="cricket-level-0" />
<rect x="527.5" y="132.5" width="12" height="12" rx="2" class="cricket-level-0" />
<rect x="527.5" y="147.5" width="12" height="12" rx="2" class="cricket-level-0" />
<rect x="542.5" y="57.5" width="12" height="12" rx="2" class="cricket-level-0" />
<rect x="542.5" y="72.5" width="12" height="12" rx="2" class="cricket-level-0" />
<rect x="542.5" y="87.5" width="12" height="12" rx="2" class="cricket-level-0" />
<rect x="542.5" y="102.5" width="12" height="12" rx="2" class="cricket-level-0" />
<rect x="542.5" y="117.5" width="12" height="12" rx="2" class="cricket-level-0" />
<rect x="542.5" y="132.5" width="12" height="12" rx="2" class="cricket-level-0" />
<rect x="542.5" y="147.5" width="12" height="12" rx="2" class="cricket-level-0" />
<rect x="557.5" y="57.5" width="12" height="12" rx="2" class="cricket-level-0" />
<rect x="557.5" y="72.5" width="12" height="12" rx="2" class="cricket-level-0" />
<rect x="557.5" y="87.5" width="12" height="12" rx="2" class="cricket-level-0" />
<rect x="557.5" y="102.5" width="12" height="12" rx="2" class="cricket-level-0" />
<rect x="557.5" y="117.5" width="12" height="12" rx="2" class="cricket-level-0" />
<rect x="557.5" y="132.5" width="12" height="12" rx="2" class="cricket-level-0" />
<rect x="557.5" y="147.5" width="12" height="12" rx="2" class="cricket-level-0" />
<rect x="572.5" y="57.5" width="12" height="12" rx="2" class="cricket-level-0" />
<rect x="572.5" y="72.5" width="12" height="12" rx="2" class="cricket-level-1" />
<rect x="572.5" y="87.5" width="12" height="12" rx="2" class="cricket-level-2" />
<rect x="572.5" y="102.5" width="12" height="12" rx="2" class="cricket-level-1" />
<rect x="572.5" y="117.5" width="12" height="12" rx="2" class="cricket-level-0" />
<rect x="572.5" y="132.5" width="12" height="12" rx="2" class="cricket-level-0" />
<rect x="572.5" y="147.5" width="12" height="12" rx="2" class="cricket-level-3" />
<rect x="587.5" y="57.5" width="12" height="12" rx="2" class="cricket-level-4" />
<rect x="587.5" y="72.5" width="12" height="12" rx="2" class="cricket-level-2" />
<rect x="587.5" y="87.5" width="12" height="12" rx="2" class="cricket-level-2" />
<rect x="587.5" y="102.5" width="12" height="12" rx="2" class="cricket-level-1" />
<rect x="587.5" y="117.5" width="12" height="12" rx="2" class="cricket-level-1" />
<rect x="587.5" y="132.5" width="12" height="12" rx="2" class="cricket-level-1" />
<rect x="587.5" y="147.5" width="12" height="12" rx="2" class="cricket-level-1" />
<rect x="602.5" y="57.5" width="12" height="12" rx="2" class="cricket-level-1" />
<rect x="602.5" y="72.5" width="12" height="12" rx="2" class="cricket-level-1" />
<rect x="602.5" y="87.5" width="12" height="12" rx="2" class="cricket-level-1" />
<rect x="602.5" y="102.5" width="12" height="12" rx="2" class="cricket-level-1" />
<rect x="602.5" y="117.5" width="12" height="12" rx="2" class="cricket-level-1" />
<rect x="602.5" y="132.5" width="12" height="12" rx="2" class="cricket-level-1" />
<rect x="602.5" y="147.5" width="12" height="12" rx="2" class="cricket-level-1" />
<rect x="617.5" y="57.5" width="12" height="12" rx="2" class="cricket-level-2" />
<rect x="617.5" y="72.5" width="12" height="12" rx="2" class="cricket-level-0" />
<rect x="617.5" y="87.5" width="12" height="12" rx="2" class="cricket-level-0" />
<rect x="617.5" y="102.5" width="12" height="12" rx="2" class="cricket-level-0" />
<rect x="617.5" y="117.5" width="12" height="12" rx="2" class="cricket-level-0" />
<rect x="617.5" y="132.5" width="12" height="12" rx="2" class="cricket-level-0" />
<rect x="617.5" y="147.5" width="12" height="12" rx="2" class="cricket-level-0" />
<rect x="632.5" y="57.5" width="12" height="12" rx="2" class="cricket-level-0" />
<rect x="632.5" y="72.5" width="12" height="12" rx="2" class="cricket-level-0" />
<rect x="632.5" y="87.5" width="12" height="12" rx="2" class="cricket-level-0" />
<rect x="632.5" y="102.5" width="12" height="12" rx="2" class="cricket-level-0" />
<rect x="632.5" y="117.5" width="12" height="12" rx="2" class="cricket-level-0" />
<rect x="632.5" y="132.5" width="12" height="12" rx="2" class="cricket-level-0" />
<rect x="632.5" y="147.5" width="12" height="12" rx="2" class="cricket-level-0" />
<rect x="647.5" y="57.5" width="12" height="12" rx="2" class="cricket-level-0" />
<rect x="647.5" y="72.5" width="12" height="12" rx="2" class="cricket-level-0" />
<rect x="647.5" y="87.5" width="12" height="12" rx="2" class="cricket-level-0" />
<rect x="647.5" y="102.5" width="12" height="12" rx="2" class="cricket-level-0" />
<rect x="647.5" y="117.5" width="12" height="12" rx="2" class="cricket-level-0" />
<rect x="647.5" y="132.5" width="12" height="12" rx="2" class="cricket-level-0" />
<rect x="647.5" y="147.5" width="12" height="12" rx="2" class="cricket-level-0" />
<rect x="662.5" y="57.5" width="12" height="12" rx="2" class="cricket-level-0" />
<rect x="662.5" y="72.5" width="12" height="12" rx="2" class="cricket-level-0" />
<rect x="662.5" y="87.5" width="12" height="12" rx="2" class="cricket-level-0" />
<rect x="662.5" y="102.5" width="12" height="12" rx="2" class="cricket-level-0" />
<rect x="662.5" y="117.5" width="12" height="12" rx="2" class="cricket-level-0" />
<rect x="662.5" y="132.5" width="12" height="12" rx="2" class="cricket-level-0" />
<rect x="662.5" y="147.5" width="12" height="12" rx="2" class="cricket-level-0" />
<rect x="677.5" y="57.5" width="12" height="12" rx="2" class="cricket-level-0" />
<rect x="677.5" y="72.5" width="12" height="12" rx="2" class="cricket-level-0" />
<rect x="677.5" y="87.5" width="12" height="12" rx="2" class="cricket-level-0" />
<rect x="677.5" y="102.5" width="12" height="12" rx="2" class="cricket-level-0" />
<rect x="677.5" y="117.5" width="12" height="12" rx="2" class="cricket-level-1" />
<rect x="677.5" y="132.5" width="12" height="12" rx="2" class="cricket-level-0" />
<rect x="677.5" y="147.5" width="12" height="12" rx="2" class="cricket-level-2" />
<rect x="692.5" y="57.5" width="12" height="12" rx="2" class="cricket-level-0" />
<rect x="692.5" y="72.5" width="12" height="12" rx="2" class="cricket-level-0" />
<rect x="692.5" y="87.5" width="12" height="12" rx="2" class="cricket-level-0" />
<rect x="692.5" y="102.5" width="12" height="12" rx="2" class="cricket-level-2" />
<rect x="692.5" y="117.5" width="12" height="12" rx="2" class="cricket-level-0" />
<rect x="692.5" y="132.5" width="12" height="12" rx="2" class="cricket-level-0" />
<rect x="692.5" y="147.5" width="12" height="12" rx="2" class="cricket-level-3" />
<rect x="707.5" y="57.5" width="12" height="12" rx="2" class="cricket-level-3" />
<rect x="707.5" y="72.5" width="12" height="12" rx="2" class="cricket-level-3" />
<rect x="707.5" y="87.5" width="12" height="12" rx="2" class="cricket-level-1" />
<rect x="707.5" y="102.5" width="12" height="12" rx="2" class="cricket-level-3" />
<rect x="707.5" y="117.5" width="12" height="12" rx="2" class="cricket-level-2" />
<rect x="707.5" y="132.5" width="12" height="12" rx="2" class="cricket-level-0" />
<rect x="707.5" y="147.5" width="12" height="12" rx="2" class="cricket-level-0" />
<rect x="722.5" y="57.5" width="12" height="12" rx="2" class="cricket-level-0" />
<rect x="722.5" y="72.5" width="12" height="12" rx="2" class="cricket-level-0" />
<rect x="722.5" y="87.5" width="12" height="12" rx="2" class="cricket-level-0" />
<rect x="722.5" y="102.5" width="12" height="12" rx="2" class="cricket-level-0" />
<rect x="722.5" y="117.5" width="12" height="12" rx="2" class="cricket-level-0" />
<rect x="722.5" y="132.5" width="12" height="12" rx="2" class="cricket-level-0" />
<rect x="722.5" y="147.5" width="12" height="12" rx="2" class="cricket-level-0" />
<rect x="737.5" y="57.5" width="12" height="12" rx="2" class="cricket-level-0" />
<rect x="737.5" y="72.5" width="12" height="12" rx="2" class="cricket-level-2" />
<rect x="737.5" y="87.5" width="12" height="12" rx="2" class="cricket-level-2" />
<rect x="737.5" y="102.5" width="12" height="12" rx="2" class="cricket-level-0" />
<rect x="737.5" y="117.5" width="12" height="12" rx="2" class="cricket-level-0" />
<rect x="737.5" y="132.5" width="12" height="12" rx="2" class="cricket-level-0" />
<rect x="737.5" y="147.5" width="12" height="12" rx="2" class="cricket-level-0" />
<rect x="752.5" y="57.5" width="12" height="12" rx="2" class="cricket-level-0" />
<rect x="752.5" y="72.5" width="12" height="12" rx="2" class="cricket-level-0" />
<rect x="752.5" y="87.5" width="12" height="12" rx="2" class="cricket-level-1" />
<rect x="752.5" y="102.5" width="12" height="12" rx="2" class="cricket-level-1" />
<rect x="752.5" y="117.5" width="12" height="12" rx="2" class="cricket-level-4" />
<rect x="752.5" y="132.5" width="12" height="12" rx="2" class="cricket-level-0" />
<rect x="752.5" y="147.5" width="12" height="12" rx="2" class="cricket-level-0" />
<rect x="767.5" y="57.5" width="12" height="12" rx="2" class="cricket-level-0" />
<rect x="767.5" y="72.5" width="12" height="12" rx="2" class="cricket-level-0" />
<rect x="767.5" y="87.5" width="12" height="12" rx="2" class="cricket-level-0" />
<rect x="767.5" y="102.5" width="12" height="12" rx="2" class="cricket-level-0" />
<rect x="767.5" y="117.5" width="12" height="12" rx="2" class="cricket-level-0" />
<rect x="767.5" y="132.5" width="12" height="12" rx="2" class="cricket-level-0" />
<rect x="767.5" y="147.5" width="12" height="12" rx="2" class="cricket-level-0" />
<rect x="782.5" y="57.5" width="12" height="12" rx="2" class="cricket-level-0" />

  
  <!-- Batsman minimal pixel art / silhouette -->
  <g transform="translate(-52.5, 90.0)" class="cricket-batsman">
    <rect x="10" y="0" width="10" height="10" rx="5" /> <!-- Head -->
    <rect x="5" y="12" width="20" height="20" rx="3" /> <!-- Torso -->
    <rect x="5" y="34" width="8" height="15" rx="3" /> <!-- Leg -->
    <rect x="17" y="34" width="8" height="15" rx="3" /> <!-- Leg -->
    <!-- Bat -->
    <rect x="22" y="10" width="5" height="25" class="cricket-bat" transform="rotate(-30 22 10)" /> 
  </g>

  <!-- Animations -->
  <circle r="4" class="cricket-ball" opacity="0">
          <animateMotion path="M -37.5 110.0 Q 120.5 3.5 278.5 63.5" dur="1.5s" begin="0.0s" repeatCount="indefinite" fill="freeze" />
          <animate attributeName="opacity" values="0;1;1;0" keyTimes="0;0.05;0.9;1" dur="1.5s" begin="0.0s" repeatCount="indefinite" />
        </circle>
        
        <g style="animation: cricket-pop0 16s ease-out infinite; transform-origin: 278.5px 63.5px;">
            <text x="278.5" y="63.5" class="cricket-popup cricket-popup-contrast">2</text>
        </g>
        <circle r="4" class="cricket-ball" opacity="0">
          <animateMotion path="M -37.5 110.0 Q 270.5 50.0 578.5 153.5" dur="1.5s" begin="2.0s" repeatCount="indefinite" fill="freeze" />
          <animate attributeName="opacity" values="0;1;1;0" keyTimes="0;0.05;0.9;1" dur="1.5s" begin="2.0s" repeatCount="indefinite" />
        </circle>
        
        <g style="animation: cricket-pop1 16s ease-out infinite; transform-origin: 578.5px 153.5px;">
            <text x="578.5" y="153.5" class="cricket-popup cricket-popup-contrast">4</text>
        </g>
        <circle r="4" class="cricket-ball" opacity="0">
          <animateMotion path="M -37.5 110.0 Q 278.0 3.5 593.5 63.5" dur="1.5s" begin="4.0s" repeatCount="indefinite" fill="freeze" />
          <animate attributeName="opacity" values="0;1;1;0" keyTimes="0;0.05;0.9;1" dur="1.5s" begin="4.0s" repeatCount="indefinite" />
        </circle>
        
        <g style="animation: cricket-pop2 16s ease-out infinite; transform-origin: 593.5px 63.5px;">
            <text x="593.5" y="63.5" class="cricket-popup cricket-popup-contrast">4</text>
        </g>
        <circle r="4" class="cricket-ball" opacity="0">
          <animateMotion path="M -37.5 110.0 Q 330.5 50.0 698.5 153.5" dur="1.5s" begin="6.0s" repeatCount="indefinite" fill="freeze" />
          <animate attributeName="opacity" values="0;1;1;0" keyTimes="0;0.05;0.9;1" dur="1.5s" begin="6.0s" repeatCount="indefinite" />
        </circle>
        
        <g style="animation: cricket-pop3 16s ease-out infinite; transform-origin: 698.5px 153.5px;">
            <text x="698.5" y="153.5" class="cricket-popup cricket-popup-contrast">4</text>
        </g>
        <circle r="4" class="cricket-ball" opacity="0">
          <animateMotion path="M -37.5 110.0 Q 338.0 18.5 713.5 78.5" dur="1.5s" begin="8.0s" repeatCount="indefinite" fill="freeze" />
          <animate attributeName="opacity" values="0;1;1;0" keyTimes="0;0.05;0.9;1" dur="1.5s" begin="8.0s" repeatCount="indefinite" />
        </circle>
        
        <g style="animation: cricket-pop4 16s ease-out infinite; transform-origin: 713.5px 78.5px;">
            <text x="713.5" y="78.5" class="cricket-popup cricket-popup-contrast">4</text>
        </g>
        <circle r="4" class="cricket-ball" opacity="0">
          <animateMotion path="M -37.5 110.0 Q 338.0 48.5 713.5 108.5" dur="1.5s" begin="10.0s" repeatCount="indefinite" fill="freeze" />
          <animate attributeName="opacity" values="0;1;1;0" keyTimes="0;0.05;0.9;1" dur="1.5s" begin="10.0s" repeatCount="indefinite" />
        </circle>
        
        <g style="animation: cricket-pop5 16s ease-out infinite; transform-origin: 713.5px 108.5px;">
            <text x="713.5" y="108.5" class="cricket-popup cricket-popup-contrast">4</text>
        </g>
        <circle r="4" class="cricket-ball" opacity="0">
          <animateMotion path="M -37.5 110.0 Q 338.0 3.5 713.5 63.5" dur="1.5s" begin="12.0s" repeatCount="indefinite" fill="freeze" />
          <animate attributeName="opacity" values="0;1;1;0" keyTimes="0;0.05;0.9;1" dur="1.5s" begin="12.0s" repeatCount="indefinite" />
        </circle>
        
        <g style="animation: cricket-pop6 16s ease-out infinite; transform-origin: 713.5px 63.5px;">
            <text x="713.5" y="63.5" class="cricket-popup cricket-popup-contrast">2</text>
        </g>
        <circle r="4" class="cricket-ball" opacity="0">
          <animateMotion path="M -37.5 110.0 Q 360.5 50.0 758.5 123.5" dur="1.5s" begin="14.0s" repeatCount="indefinite" fill="freeze" />
          <animate attributeName="opacity" values="0;1;1;0" keyTimes="0;0.05;0.9;1" dur="1.5s" begin="14.0s" repeatCount="indefinite" />
        </circle>
        
        <g style="animation: cricket-pop7 16s ease-out infinite; transform-origin: 758.5px 123.5px;">
            <text x="758.5" y="123.5" class="cricket-popup cricket-popup-contrast">4</text>
        </g>
        

</svg>