<svg width="600" height="200" viewBox="0 0 600 200" xmlns="http://www.w3.org/2000/svg">
  <defs>
    <style>
      @import url('https://fonts.googleapis.com/css2?family=Space+Mono:ital,wght@0,400;0,700;1,400&amp;display=swap');
      
      :root {
        --bg-color: #0b132b;
        --fg-color: #ffffff;
        --ac-color: #ef233c;
      }
      
      @media (prefers-color-scheme: light) {
        :root {
          --bg-color: #f8fafc;
          --fg-color: #0f172a;
          --ac-color: #ef233c;
        }
      }
      
      .st-bg { fill: var(--bg-color); stroke: var(--fg-color); stroke-width: 2; rx: 8px; }
      .st-stroke { stroke: var(--fg-color); fill: none; stroke-width: 1; }
      .st-grid { stroke: var(--fg-color); stroke-width: 1; stroke-opacity: 0.15; stroke-dasharray: 2 4; }
      .st-fill { fill: var(--fg-color); }
      .st-accent { fill: none; stroke: var(--ac-color); stroke-width: 2; stroke-linejoin: round; }
      .st-accent-fill { fill: var(--ac-color); }
      
      .st-text { font-family: 'Space Mono', monospace; fill: var(--fg-color); font-size: 12px; font-weight: 700; }
      .st-text-dim { font-family: 'Space Mono', monospace; fill: var(--fg-color); font-size: 12px; opacity: 0.5; }
      .st-text-accent { font-family: 'Space Mono', monospace; fill: var(--ac-color); font-size: 12px; font-weight: 700; letter-spacing: 1px; }
      
      @keyframes pulse { 0% { r: 3; opacity: 1; } 100% { r: 8; opacity: 0; } }
      .pulse-ring { fill: none; stroke: var(--ac-color); stroke-width: 1; animation: pulse 1.5s infinite; }
    </style>
  </defs>

  <!-- Background -->
  <rect class="st-bg" x="10" y="10" width="580" height="180" />

  <!-- Header -->
  <circle cx="25" cy="27" r="4" class="st-accent-fill" />
  <text x="40" y="31" class="st-text">TELEMETRY_LOG</text>
  
  <text x="180" y="31" class="st-text">LOSS(T): 0.25</text>
  <text x="320" y="31" class="st-text-accent">LOSS(V): 0.61</text>
  <text x="580" y="31" class="st-text-dim" text-anchor="end">EPOCH: 40</text>
  
  <line x1="10" y1="45" x2="590" y2="45" class="st-stroke" />

  <!-- Graph Area Translate -->
  <g transform="translate(60, 60)">
    
    <!-- Y-Axis Grid Lines -->
    <line x1="0" y1="0" x2="470" y2="0" class="st-grid" />
    <line x1="0" y1="60.0" x2="470" y2="60.0" class="st-grid" />
    <line x1="0" y1="120" x2="470" y2="120" class="st-grid" />
    
    <!-- Y-Axis Labels -->
    <text x="-10" y="4" class="st-text-dim" text-anchor="end">2.7</text>
    <text x="-10" y="64.0" class="st-text-dim" text-anchor="end">1.3</text>
    <text x="-10" y="124" class="st-text-dim" text-anchor="end">0.0</text>
    
    <!-- X-Axis Labels -->
    <text x="0" y="140" class="st-text-dim" text-anchor="middle">0</text>
    <text x="235.0" y="140" class="st-text-dim" text-anchor="middle">20</text>
    <text x="470" y="140" class="st-text-dim" text-anchor="middle">40</text>

    <!-- Data Lines -->
    <path class="st-stroke" d="M 0.0,15.429893942123385 L 12.820512820512821,25.632020708459876 L 25.641025641025642,32.531496082097306 L 38.46153846153847,38.324910928264615 L 51.282051282051285,44.90610709886539 L 64.1025641025641,49.14032287734179 L 76.92307692307693,53.290364507610676 L 89.74358974358975,58.450628030755595 L 102.56410256410257,64.54311792918861 L 115.38461538461539,69.98696468465988 L 128.2051282051282,75.47862606286051 L 141.02564102564102,79.59816986136013 L 153.84615384615387,81.76267870208277 L 166.66666666666669,83.7406166438612 L 179.4871794871795,84.5068778699253 L 192.30769230769232,85.7529787447576 L 205.12820512820514,90.49417266580132 L 217.94871794871796,91.08225440075734 L 230.76923076923077,92.90946038837205 L 243.5897435897436,95.27232786221286 L 256.4102564102564,98.4180607887015 L 269.2307692307692,99.12824039932649 L 282.05128205128204,99.44941957260525 L 294.87179487179486,100.49788000730123 L 307.69230769230774,103.97818817739243 L 320.51282051282055,103.13325195013613 L 333.33333333333337,103.39750014149818 L 346.1538461538462,103.03818637624974 L 358.974358974359,103.49734866167975 L 371.7948717948718,102.60492179484288 L 384.61538461538464,103.25153778990116 L 397.43589743589746,106.40005864169022 L 410.2564102564103,105.61357331238804 L 423.0769230769231,108.03218532088621 L 435.8974358974359,108.35882454044474 L 448.71794871794873,107.35615252520776 L 461.53846153846155,107.63855503546893 L 474.35897435897436,108.51179092886478 L 487.1794871794872,109.26212913916287 L 500.0,108.77558189505855" style="stroke-opacity: 0.6; stroke-dasharray: 2 4;" />
    <circle cx="470" cy="108.77439212046116" r="3" class="st-fill" />
    
    <path class="st-accent" d="M 0.0,10.909090909090907 L 12.820512820512821,17.727210731466656 L 25.641025641025642,22.994483784767013 L 38.46153846153847,29.842788591892344 L 51.282051282051285,35.709388339248946 L 64.1025641025641,40.90737586890417 L 76.92307692307693,46.902184444649976 L 89.74358974358975,49.82620067250757 L 102.56410256410257,54.036867175495246 L 115.38461538461539,58.92593059986888 L 128.2051282051282,61.75070775373237 L 141.02564102564102,64.96167799953052 L 153.84615384615387,67.2466695150215 L 166.66666666666669,70.61161885422726 L 179.4871794871795,71.28494901343493 L 192.30769230769232,71.18063707121154 L 205.12820512820514,71.52520899605196 L 217.94871794871796,75.17999313674623 L 230.76923076923077,78.34119712673056 L 243.5897435897436,80.64603795087474 L 256.4102564102564,81.22418459625423 L 269.2307692307692,81.72814725023537 L 282.05128205128204,81.74435899960439 L 294.87179487179486,83.19718565351505 L 307.69230769230774,83.38063867094041 L 320.51282051282055,83.32910508097035 L 333.33333333333337,86.03747337211453 L 346.1538461538462,86.3914421284563 L 358.974358974359,87.23482609453227 L 371.7948717948718,89.26065664516099 L 384.61538461538464,91.27299362193286 L 397.43589743589746,93.78692059957879 L 410.2564102564103,93.86144233443474 L 423.0769230769231,94.30972009246895 L 435.8974358974359,94.69205503350456 L 448.71794871794873,93.45469271319679 L 461.53846153846155,95.28142033340669 L 474.35897435897436,93.94278524929723 L 487.1794871794872,92.73530445222946 L 500.0,92.59526044350594" />
    <circle cx="470" cy="92.60951677392522" r="3" class="st-accent-fill" />
    <circle cx="470" cy="92.60951677392522" r="3" class="pulse-ring" />
    
  </g>
</svg>